<?xml version="1.0" encoding="UTF-8"?>
<svg width="30px" height="30px" viewBox="0 0 30 30" version="1.1" xmlns="http://www.w3.org/2000/svg" xmlns:xlink="http://www.w3.org/1999/xlink">
    <title>arrow</title>
    <g id="Staking-Pool" stroke="none" stroke-width="1" fill="none" fill-rule="evenodd">
        <g id="Home" transform="translate(-150.000000, -511.000000)" fill-rule="nonzero">
            <g id="arrow" transform="translate(150.000000, 511.000000)">
                <rect id="rect" fill="#000000" opacity="0" x="0" y="0" width="30" height="30"></rect>
                <path d="M2.36842105,15.3947368 C2.42753495,11.0770925 3.17737876,7.50201194 5.3698347,5.3698347 C7.50201194,3.17737876 11.0770925,2.42753495 15.3947368,2.36842105 C19.7123812,2.42753495 23.2874617,3.17737876 25.419639,5.3698347 C27.6120949,7.50201194 28.3619387,11.0770925 28.4210526,15.3947368 C28.3619387,19.7123812 27.6120949,23.2874617 25.419639,25.419639 C23.2874617,27.6120949 19.7123812,28.3619387 15.3947368,28.4210526 C11.0770925,28.3619387 7.50201194,27.6120949 5.3698347,25.419639 C3.17737876,23.2874617 2.42753495,19.7123812 2.36842105,15.3947368 Z" id="padtpadt" fill="#EBB94C"></path>
                <path d="M14.4627346,9.98218491 L18.7204729,14.2397774 L9.44460337,14.2400659 C9.02459882,14.2400659 8.68421053,14.5804425 8.68421053,15.0004327 C8.68421053,15.4204228 9.02431036,15.7607995 9.44460337,15.7607995 L18.7204729,15.760511 L14.4624461,20.0178151 C14.165616,20.3146351 14.165616,20.7960661 14.4624461,21.0931745 C14.7592762,21.3899945 15.2407238,21.3899945 15.5378424,21.0931745 L21.0936717,15.5375355 C21.1288644,15.502344 21.1605955,15.4631141 21.1882881,15.4215767 C21.2006921,15.4028271 21.209346,15.3826353 21.2200192,15.3630203 C21.2332886,15.3390786 21.2477118,15.3160022 21.2580965,15.2906182 C21.2687697,15.2652342 21.2748275,15.2384079 21.2823276,15.2121585 C21.2883853,15.1911013 21.2967508,15.170621 21.3010778,15.1489869 C21.3206934,15.0506238 21.3206934,14.9490877 21.3010778,14.8507247 C21.2970393,14.8302444 21.2892507,14.8112063 21.2834814,14.7910145 C21.2756929,14.7636113 21.2690582,14.7356312 21.2580965,14.7088049 C21.2480003,14.6842862 21.2338655,14.6623637 21.2214615,14.6392873 C21.2104999,14.618807 21.201269,14.5977498 21.1882881,14.5781349 C21.160307,14.5365974 21.1288644,14.497656 21.0936717,14.4621761 L15.5378424,8.9068255 C15.2410122,8.61000553 14.7595647,8.61000553 14.4624461,8.9068255 C14.165616,9.20364547 14.165616,9.68507649 14.4627346,9.98218491 L14.4627346,9.98218491 Z" id="padtpath" fill="#000000"></path>
            </g>
        </g>
    </g>
</svg>
