<?xml version="1.0" encoding="UTF-8"?>
<svg viewBox="0 0 16 16" version="1.1" xmlns="http://www.w3.org/2000/svg" xmlns:xlink="http://www.w3.org/1999/xlink">
    <title>right2</title>
    <g id="Explorer" stroke="none" stroke-width="1" fill-rule="evenodd">
        <g id="TRANSACTIONS" transform="translate(-92.000000, -491.000000)" fill-rule="nonzero">
            <g id="right" transform="translate(92.000000, 491.000000)">
                <rect id="rect" opacity="0" x="0" y="0" width="16" height="16"></rect>
                <path d="M8,15 C4.14000806,15 1,11.8599919 1,8 C1,4.14000806 4.14000806,1 8,1 C11.8599919,1 15,4.14000806 15,8 C15,11.8599919 11.8599919,15 8,15 Z M8,2 C4.69149308,2 2,4.69149308 2,8 C2,11.3085069 4.69149308,14 8,14 C11.3085069,14 14,11.3085069 14,8 C14,4.69149308 11.3085069,2 8,2 Z" id="shape"></path>
                <path d="M11.4524929,7.83050666 C11.4519823,7.82851767 11.4494826,7.82650181 11.4484881,7.82451284 C11.4244859,7.76801506 11.3914796,7.71401694 11.3454912,7.66751781 C11.3449805,7.66700712 11.3444967,7.66700712 11.343986,7.66652333 C11.3434753,7.66601264 11.3434753,7.66552884 11.3429915,7.66501816 L8.85999194,5.17503025 C8.66499127,4.98002958 8.34898536,4.97852441 8.15299019,5.17403577 C7.95747883,5.36903644 7.95699503,5.68552616 8.1519957,5.88103752 L9.76650988,7.50004034 L5,7.50004031 C4.72398872,7.50004031 4.50001344,7.72404247 4.50001344,8.00005375 C4.50001344,8.27606503 4.72401559,8.50006719 5,8.50006719 L9.79301169,8.50006719 L8.13500873,10.1400618 C7.93850289,10.3345518 7.93699772,10.6505577 8.13100389,10.8470636 C8.22849078,10.9460556 8.3575057,10.9955651 8.48649375,10.9955651 C8.61349281,10.9955651 8.74049188,10.947077 8.83800564,10.8510684 L11.341997,8.37457331 C11.4895041,8.22800698 11.5269991,8.01198764 11.4524929,7.83050666 Z" id="path"></path>
            </g>
        </g>
    </g>
</svg>
