<?xml version="1.0" encoding="UTF-8"?>
<svg viewBox="0 0 20 20" version="1.1" xmlns="http://www.w3.org/2000/svg" xmlns:xlink="http://www.w3.org/1999/xlink">
    <title>right arrow</title>
    <g id="Explorer" stroke="none" stroke-width="1" fill-rule="evenodd">
        <g id="TRANSACTIONS" transform="translate(-749.000000, -595.000000)" fill-rule="nonzero">
            <g id="group-7" transform="translate(706.000000, 542.000000)">
                <g id="right-arrow" transform="translate(43.000000, 53.000000)">
                    <rect id="react" opacity="0" x="0" y="0" width="20" height="20"></rect>
                    <path d="M18.4166667,9.20833334 L13.4166667,4.20833334 C13.0833333,3.875 12.5833333,3.875 12.25,4.20833334 C11.9166667,4.54166668 11.9166667,5.04166668 12.25,5.375 L15.8333333,8.95833333 L3.66666666,8.95833333 L3.66666666,5.20833334 C3.66666666,4.75 3.29166666,4.375 2.83333334,4.375 C2.37500002,4.375 2,4.75 2,5.20833334 L2,9.79166666 C2,10.25 2.375,10.625 2.83333334,10.625 L15.8333333,10.625 L12.25,14.2083333 C11.9166667,14.5416667 11.9166667,15.0416667 12.25,15.375 C12.4166667,15.5416667 12.625,15.625 12.8333333,15.625 C13.0416667,15.625 13.25,15.5416667 13.4166667,15.375 L18.4166667,10.375 C18.75,10.0833333 18.75,9.54166666 18.4166667,9.20833334 Z" id="path"></path>
                </g>
            </g>
        </g>
    </g>
</svg>
