<?xml version="1.0" encoding="UTF-8"?>
<svg  viewBox="0 0 30 30" version="1.1" xmlns="http://www.w3.org/2000/svg" xmlns:xlink="http://www.w3.org/1999/xlink">
    <title>close2-fill</title>
    <g id="Explorer" stroke="none" stroke-width="1" fill="none" fill-rule="evenodd">
        <g id="CONNECT" transform="translate(-844.000000, -140.000000)" fill-rule="nonzero">
            <g id="group-13" transform="translate(483.000000, 129.000000)">
                <g id="close2-fill" transform="translate(361.000000, 11.000000)">
                    <rect id="rect" fill="#000000" opacity="0" x="0" y="0" width="30" height="30"></rect>
                    <path d="M15,1.875 C7.76342227,1.875 1.875,7.76251512 1.875,15 C1.875,22.2374849 7.76251512,28.125 15,28.125 C22.2365777,28.125 28.125,22.2374849 28.125,15 C28.125,7.76251512 22.2374849,1.875 15,1.875 Z M20.3540687,19.042501 C20.7196949,19.4099919 20.7187374,20.002503 20.352204,20.3681293 C20.1694161,20.5500101 19.9303353,20.6418828 19.6903474,20.6418828 C19.449402,20.6418828 19.2094141,20.55001 19.0265757,20.3662646 L14.9953131,16.3228061 L10.9509475,20.3240828 C10.7681595,20.5040989 10.5299859,20.5950141 10.2918627,20.5950141 C10.0500101,20.5950141 9.80906467,20.5021838 9.62531918,20.3165737 C9.26155758,19.9481252 9.26437978,19.3556141 9.63282826,18.9909454 L13.6725071,14.9953131 L9.64779601,10.957499 C9.28216975,10.5909152 9.28312729,9.99749695 9.64966066,9.63187069 C10.0162445,9.26528689 10.6087051,9.26720197 10.9752889,9.63373535 L15.005594,13.6762363 L19.0499597,9.67501002 C19.4174506,9.3103413 20.0118264,9.31407062 20.375588,9.6825191 C20.7402567,10.0509676 20.7365274,10.6443858 20.3680789,11.0081474 L16.3284505,15.0037293 L20.3540687,19.042501 Z" id="shape" fill="#575B66"></path>
                </g>
            </g>
        </g>
    </g>
</svg>
