<?xml version="1.0" encoding="UTF-8"?>
<svg  viewBox="0 0 16 16" version="1.1" xmlns="http://www.w3.org/2000/svg" xmlns:xlink="http://www.w3.org/1999/xlink">
    <title>learn</title>
    <g id="Explorer" stroke="none" stroke-width="1" fill="none" fill-rule="evenodd">
        <g id="Explorer-detail-page-Holders" transform="translate(-269.000000, -334.000000)" fill="#EBB94C" fill-rule="nonzero">
            <g id="group-3" transform="translate(80.000000, 257.000000)">
                <g id="learn" transform="translate(189.000000, 77.000000)">
                    <rect id="rect" opacity="0" x="0" y="0" width="15.9971738" height="15.9971738"></rect>
                    <path d="M12.0486981,12.4244717 C12.2027853,13.1217458 12.7161796,13.6843975 13.39646,13.9015441 C11.9247043,15.2500491 10.0002058,15.9966943 8.00407927,15.9936284 C6.00727885,15.9957003 4.08237198,15.2485085 2.60992113,13.8997666 C3.29088008,13.6841833 3.80523977,13.1218935 3.95946049,12.4244717 C5.06281289,13.4368118 6.50667903,13.9969405 8.00407927,13.9935278 C9.45045058,13.9957345 10.8484705,13.4729376 11.9384953,12.5222322 L12.0486981,12.4244717 L12.0486981,12.4244717 Z M2.00602782,10.9967214 C2.27134651,10.9961338 2.52600061,11.1011178 2.71381801,11.2885184 C2.90163541,11.475919 3.00718588,11.7303392 3.00718588,11.9956585 C3.00765625,12.2609003 2.90262005,12.5154401 2.71523228,12.7031613 C2.52784452,12.8908825 2.27349184,12.9963706 2.00824965,12.9963706 L2.00647219,12.9963706 C1.74123,12.9963706 1.48687733,12.8908825 1.29948957,12.7031613 C1.11210181,12.5154401 1.0070656,12.2609003 1.00753598,11.9956585 C1.00718315,11.7306161 1.11231393,11.4763272 1.2997274,11.2889137 C1.48714086,11.1015003 1.74142977,10.9963695 2.00647219,10.9967214 L2.00602782,10.9967214 Z M14.0021307,10.9967223 C14.2673725,10.996252 14.5219123,11.1012882 14.7096335,11.2886759 C14.8973547,11.4760637 15.0028444,11.7304164 15.0028444,11.9956585 C15.0033148,12.2609003 14.8982786,12.5154401 14.7108908,12.7031613 C14.5235031,12.8908825 14.2691504,12.9963707 14.0039082,12.9963707 L14.0021307,12.9963707 C13.7368115,12.9964891 13.4823446,12.8910526 13.2948607,12.7033186 C13.1073768,12.5155846 13.0022796,12.2609773 13.0027501,11.9956585 C13.002397,11.730539 13.1075888,11.4761825 13.2950984,11.2887562 C13.4826081,11.1013299 13.7370114,10.9962513 14.0021307,10.9967223 L14.0021307,10.9967223 Z M6.16351555,0.213295646 C6.05788702,0.462184948 6.00377113,0.729892369 6.00443254,1.00026772 C6.00443254,1.45574282 6.15773879,1.87744608 6.41458232,2.21338675 C3.21914685,3.09012075 1.34081201,6.38909348 2.21799037,9.58497332 C2.2593164,9.73516901 2.30641919,9.88314287 2.35885438,10.0293393 C1.65567458,9.90223122 0.938138948,10.160273 0.476964627,10.7061086 C-1.01877113,6.54862086 1.13862551,1.96631929 5.29566887,0.470583535 C5.54895745,0.378599786 5.80757843,0.299947009 6.06975435,0.235958314 L6.16351555,0.21374002 L6.16351555,0.213295646 Z M16,7.99769818 C16,8.94997438 15.8329184,9.8604802 15.5294165,10.7061086 C15.0683973,10.1588489 14.3498533,9.90001037 13.6457492,10.0275618 C14.7664401,6.90855725 13.1471707,3.47138672 10.0286105,2.35025146 C9.88419157,2.29781629 9.73977263,2.25293532 9.59179877,2.21160928 C9.85836947,1.863575 10.002691,1.43732682 10.0023929,0.998934631 C10.0023929,0.719872822 9.94595844,0.453697628 9.84286553,0.211962553 C13.4513938,1.06666232 15.9997465,4.28888655 16,7.99725382 L16,7.99769818 Z M8.00407927,0 C8.55577563,0 9.0030139,0.447238268 9.0030139,0.998934631 C9.0030139,1.55063099 8.55577563,1.99786926 8.00407927,1.99786926 C7.45238291,1.99786926 7.00514464,1.55063099 7.00514464,0.998934631 C7.00514464,0.447238268 7.45238291,0 8.00407927,0 Z" id="shape"></path>
                </g>
            </g>
        </g>
    </g>
</svg>
