<?xml version="1.0" encoding="UTF-8"?>
<svg width="16px" height="16px" viewBox="0 0 16 16" version="1.1" xmlns="http://www.w3.org/2000/svg" xmlns:xlink="http://www.w3.org/1999/xlink">
    <title>end</title>
    <g id="Explorer" stroke="none" stroke-width="1" fill="none" fill-rule="evenodd">
        <g id="Explorer-detail-page-Holders" transform="translate(-667.000000, -1136.000000)" fill-rule="nonzero">
            <g id="end" transform="translate(667.000000, 1136.000000)">
                <rect id="rect" fill="#000000" opacity="0" x="0" y="0" width="16" height="16"></rect>
                <path d="M11.972,14.974 L4.214,14.974 C2.452,14.974 1.026,13.546 1.026,11.786 L1.026,4.028 C1.026,2.268 2.452,0.84 4.214,0.84 L11.972,0.84 C13.732,0.84 15.16,2.268 15.16,4.028 L15.16,11.786 C15.16,13.548 13.732,14.974 11.972,14.974 Z" id="path" fill="#EBB94C"></path>
                <path d="M11.022,11.61 C10.996,11.444 10.962,11.282 10.924,11.126 C10.906,11.052 10.882,10.982 10.86,10.91 C10.832,10.816 10.806,10.722 10.772,10.632 C10.742,10.55 10.71,10.474 10.676,10.394 C10.644,10.32 10.614,10.244 10.58,10.172 C10.542,10.092 10.5,10.014 10.458,9.938 C10.424,9.876 10.388,9.814 10.352,9.754 C10.306,9.678 10.256,9.606 10.206,9.534 C10.168,9.48 10.13,9.43 10.09,9.38 C10.036,9.312 9.98,9.244 9.922,9.18 C9.88,9.136 9.838,9.094 9.796,9.052 C9.736,8.992 9.674,8.934 9.61,8.88 C9.564,8.842 9.516,8.81 9.47,8.776 C9.404,8.728 9.34,8.678 9.272,8.638 C9.268,8.636 9.264,8.632 9.26,8.63 C9.052,8.506 8.926,8.286 8.926,8.044 L8.926,7.77 C8.926,7.528 9.054,7.308 9.26,7.184 C9.264,7.182 9.268,7.178 9.272,7.176 C9.34,7.134 9.404,7.086 9.47,7.038 C9.518,7.004 9.564,6.972 9.61,6.934 C9.674,6.88 9.734,6.822 9.796,6.762 C9.838,6.72 9.882,6.678 9.924,6.634 C9.982,6.57 10.038,6.504 10.092,6.436 C10.132,6.386 10.17,6.334 10.208,6.282 C10.258,6.212 10.308,6.138 10.354,6.062 C10.392,6.002 10.426,5.94 10.46,5.878 C10.502,5.802 10.544,5.724 10.582,5.644 C10.616,5.572 10.648,5.498 10.678,5.422 C10.71,5.344 10.744,5.266 10.774,5.184 C10.806,5.094 10.834,5 10.862,4.906 C10.884,4.834 10.908,4.764 10.926,4.69 C10.966,4.532 10.998,4.37 11.024,4.206 C11.026,4.192 11.03,4.18 11.032,4.166 C11.096,3.748 10.776,3.368 10.352,3.368 L5.834,3.368 C5.41,3.368 5.09,3.748 5.154,4.166 C5.156,4.18 5.16,4.192 5.162,4.206 C5.188,4.372 5.222,4.534 5.26,4.692 C5.278,4.766 5.302,4.836 5.324,4.908 C5.352,5.002 5.378,5.096 5.412,5.186 C5.442,5.268 5.474,5.344 5.508,5.424 C5.54,5.498 5.57,5.574 5.604,5.646 C5.642,5.726 5.684,5.804 5.726,5.88 C5.76,5.942 5.796,6.004 5.832,6.064 C5.878,6.14 5.928,6.212 5.978,6.284 C6.016,6.338 6.054,6.388 6.094,6.438 C6.148,6.506 6.204,6.574 6.262,6.636 C6.304,6.68 6.346,6.722 6.39,6.764 C6.45,6.824 6.512,6.882 6.576,6.936 C6.622,6.974 6.67,7.006 6.716,7.04 C6.782,7.088 6.846,7.138 6.914,7.178 C6.918,7.18 6.922,7.184 6.926,7.186 C7.134,7.31 7.26,7.53 7.26,7.772 L7.26,8.046 C7.26,8.288 7.132,8.508 6.926,8.632 C6.922,8.634 6.918,8.638 6.914,8.64 C6.846,8.682 6.782,8.73 6.716,8.778 C6.67,8.812 6.622,8.844 6.576,8.882 C6.512,8.936 6.452,8.994 6.39,9.054 C6.348,9.096 6.304,9.136 6.264,9.182 C6.206,9.246 6.15,9.312 6.096,9.382 C6.056,9.432 6.018,9.484 5.98,9.536 C5.93,9.608 5.88,9.68 5.834,9.756 C5.798,9.816 5.762,9.878 5.728,9.94 C5.686,10.016 5.644,10.094 5.606,10.174 C5.572,10.246 5.54,10.32 5.51,10.396 C5.478,10.474 5.444,10.552 5.414,10.634 C5.382,10.724 5.354,10.818 5.326,10.912 C5.304,10.984 5.28,11.054 5.262,11.128 C5.222,11.286 5.19,11.448 5.164,11.614 C5.162,11.628 5.158,11.64 5.156,11.654 C5.092,12.072 5.412,12.452 5.836,12.452 L10.352,12.452 C10.776,12.452 11.096,12.072 11.032,11.654 C11.028,11.638 11.024,11.624 11.022,11.61 L11.022,11.61 Z" id="path" fill="#FFFFFF"></path>
                <path d="M6.498,11.808 L9.688,11.808 C9.808,11.808 9.864,11.656 9.77,11.58 L8.302,10.436 C8.272,10.412 8.256,10.376 8.256,10.336 L8.256,6.654 C8.256,6.618 8.272,6.584 8.298,6.56 L9.172,5.842 C9.258,5.762 9.202,5.618 9.084,5.618 L7.1,5.618 C6.982,5.618 6.926,5.762 7.012,5.842 L7.876,6.556 C7.902,6.58 7.918,6.614 7.918,6.65 L7.918,10.332 C7.918,10.37 7.9,10.406 7.872,10.432 L6.414,11.58 C6.322,11.658 6.376,11.808 6.498,11.808 L6.498,11.808 Z" id="path" fill="#FF9429"></path>
            </g>
        </g>
    </g>
</svg>
