<?xml version="1.0" encoding="UTF-8"?>
<svg viewBox="0 0 12 12" version="1.1" xmlns="http://www.w3.org/2000/svg" xmlns:xlink="http://www.w3.org/1999/xlink">
    <title>doc</title>
    <g id="Explorer" stroke="none" stroke-width="1" fill="none" fill-rule="evenodd">
        <g id="Explorer-detail-page-Holders" transform="translate(-1154.000000, -34.000000)" fill="#D8D8D8" fill-rule="nonzero">
            <g id="doc" transform="translate(1154.000000, 34.000000)">
                <rect id="rect" opacity="0" x="0" y="0" width="12" height="12"></rect>
                <path d="M2.00000001,0.956521736 L2.00000001,10.0434783 L10,10.0434783 L10,5.26086956 L9.00000001,5.26086956 L9.00000001,0.956521736 L2.00000001,0.956521736 Z M10,0 L10,11 L1,11 L1,0 L10,0 Z M3.50000001,8.60869566 L4.00000001,8.60869566 C4.2785,8.60869566 4.50000001,8.39634783 4.50000001,8.13139131 L4.50000001,7.17295653 C4.50000001,6.91039131 4.275,6.69565217 4.00000001,6.69565217 L3.50000001,6.69565217 L3.50000001,8.60869566 Z M3,9.08696086 L3,6.21739131 L4,6.21739131 C4.5525,6.21739131 5,6.64686957 5,7.17295653 L5,8.13139131 C5.00053338,8.38514491 4.89531576,8.62863838 4.70763472,8.80797985 C4.51995369,8.98732132 4.26528719,9.0877206 4,9.08696086 L3,9.08696086 Z M10,9.08695653 L9.00000001,9.08695653 C8.44400001,9.08695653 8.00000001,8.65939131 8.00000001,8.13139131 L8.00000001,7.17295653 C8.00000001,6.64686957 8.44750001,6.21739131 9.00000001,6.21739131 L10,6.21739131 L10,6.69565217 L9.5005,6.69565217 C8.9505,6.69565217 8.50000001,7.12369565 8.50000001,7.65217392 C8.50000001,8.184 8.948,8.60869566 9.5005,8.60869566 L10,8.60869566 L10,9.08695653 L10,9.08695653 Z M6.5,8.60869566 C6.7785,8.60869566 7,8.39634783 7,8.13139131 L7,7.17295653 C7,6.91039131 6.775,6.69565217 6.5,6.69565217 C6.22150001,6.69565217 6,6.908 6,7.17295653 L6,8.13139131 C6,8.39395653 6.225,8.60869566 6.5,8.60869566 Z M6.5,9.08696086 C5.9475,9.08696086 5.5,8.65747826 5.5,8.13139131 L5.5,7.17295653 C5.5,6.64495653 5.944,6.21739131 6.5,6.21739131 C7.05250001,6.21739131 7.5,6.64686957 7.5,7.17295653 L7.5,8.13139131 C7.50053338,8.38514491 7.39531576,8.62863838 7.20763473,8.80797985 C7.01995369,8.98732132 6.76528719,9.08772059 6.5,9.08696086 Z" id="shape"></path>
            </g>
        </g>
    </g>
</svg>
