<?xml version="1.0" encoding="UTF-8"?>
<svg viewBox="0 0 16 10" version="1.1" xmlns="http://www.w3.org/2000/svg" xmlns:xlink="http://www.w3.org/1999/xlink">
    <title>Union</title>
    <g id="Explorer" stroke="none" stroke-width="1" fill="none" fill-rule="evenodd">
        <g id="Explorer-ALL" transform="translate(-1207.000000, -475.000000)" fill="#777E91" fill-rule="nonzero">
            <path d="M1211.56867,474.976162 L1216.8646,480.000001 L1216.8646,480.000001 L1211.56867,485.023839 C1210.74683,485.80346 1210.7126,487.101703 1211.49222,487.923548 C1211.51703,487.9497 1211.54252,487.975193 1211.56867,488.000001 L1211.56867,488.000001 L1211.56867,488.000001 L1219.2346,480.724561 C1219.6352,480.344373 1219.65174,479.711424 1219.27155,479.31083 C1219.25922,479.297839 1219.24654,479.28518 1219.23353,479.27287 L1218.43133,478.51377 L1218.43133,478.51377 L1211.56867,472.000001 C1210.74683,472.779621 1210.7126,474.077865 1211.49222,474.899709 C1211.51703,474.92586 1211.54252,474.951354 1211.56867,474.976162 Z" id="Union" transform="translate(1215.000000, 480.000001) scale(-1, -1) rotate(-90.000003) translate(-1215.000000, -480.000001) "></path>
        </g>
    </g>
</svg>
