<?xml version="1.0" encoding="UTF-8"?>
<svg viewBox="0 0 18 18" version="1.1" xmlns="http://www.w3.org/2000/svg" xmlns:xlink="http://www.w3.org/1999/xlink">
    <title>my </title>
    <g id="Explorer" stroke="none" stroke-width="1"  fill-rule="evenodd">
        <g id="Address-details-page-Transfers" transform="translate(-81.000000, -275.000000)"  fill-rule="nonzero">
            <g id="my-" transform="translate(81.000000, 275.000000)">
                <rect id="rect" opacity="0" x="0" y="0" width="18" height="18"></rect>
                <path d="M9.42857142,14.3142857 L9,14.3142857 L2.35714286,4.92857142 L2.35714286,4.5 L9,0 L9.42857142,0 L15.6428571,4.5 L15.6428571,4.92857142 L9.42857142,14.3142857 Z M9.42857142,0.814285723 L9,0.814285723 L3.6,4.5 L9,6.55714285 L9.42857142,6.55714285 L14.4,4.5 L9.42857142,0.814285723 Z M9.42857142,7.37142857 L9,7.37142857 L3.6,5.31428572 L9,13.0714286 L9.42857142,13.0714286 L14.4,5.31428572 L9.42857142,7.37142857 Z M5.27142857,14.9571429 L5.27142857,14.3142857 L5.78571428,14.3142857 C6.17142857,15 7.54285714,15.5571429 9.21428571,15.5571429 C10.8428571,15.5571429 12.2142857,15.0428572 12.6428571,14.3142857 L13.1571429,14.3142857 L13.1571429,14.9571429 C12.4714286,15.7714286 10.9714286,16.3714286 9.21428571,16.3714286 C7.45714285,16.3714286 5.95714286,15.7714286 5.27142857,14.9571429 Z M9.21428571,17.1857143 C11.1428571,17.1857143 12.8142857,16.6714286 13.7142857,15.9428571 L14.4,15.9428571 L14.4,16.3714286 C13.3714286,17.3571428 11.4,18 9.21428571,18 C6.98571429,18 5.05714286,17.3571428 4.02857142,16.3714286 L4.02857142,15.9428571 L4.71428571,15.9428571 C5.61428571,16.6714286 7.28571428,17.1857143 9.21428571,17.1857143 Z" id="shape"></path>
            </g>
        </g>
    </g>
</svg>
