<?xml version="1.0" encoding="UTF-8"?>
<svg  viewBox="0 0 16 16" version="1.1" xmlns="http://www.w3.org/2000/svg" xmlns:xlink="http://www.w3.org/1999/xlink">
    <title>group 2</title>
    <g id="Explorer" stroke="none" stroke-width="1" fill="none" fill-rule="evenodd">
        <g id="Explorer-ALL" transform="translate(-846.000000, -590.000000)" fill-rule="nonzero">
            <g id="group-3" transform="translate(846.000000, 527.000000)">
                <g id="groupgroup-2" transform="translate(0.000000, 63.000000)">
                    <g id="C_round_solid_wordc" fill="#EBB94C">
                        <rect id="rect" opacity="0" x="0" y="0" width="16" height="16"></rect>
                        <path d="M8,14.0546875 C4.6614375,14.0546875 1.9453125,11.3385625 1.9453125,8 C1.9453125,4.6614375 4.6614375,1.9453125 8,1.9453125 C11.3385625,1.9453125 14.0546875,4.6614375 14.0546875,8 C14.0546875,11.3385625 11.3385625,14.0546875 8,14.0546875 Z" id="path"/>
                        <path d="M8,2.140625 C4.769125,2.140625 2.140625,4.769125 2.140625,8 C2.140625,11.230875 4.769125,13.859375 8,13.859375 C11.230875,13.859375 13.859375,11.230875 13.859375,8 C13.859375,4.769125 11.230875,2.140625 8,2.140625 M8,1.75 C11.4517812,1.75 14.25,4.54821875 14.25,8 C14.25,11.4517812 11.4517812,14.25 8,14.25 C4.54821875,14.25 1.75,11.4517812 1.75,8 C1.75,4.54821875 4.54821875,1.75 8,1.75 Z" id="shape"/>
                    </g>
                    <path d="M10.3162994,9.4196875 C10.3162994,9.33804687 10.2709688,9.27454687 10.1892813,9.220125 C10.1076406,9.1748125 10.026,9.1475625 9.94435938,9.1475625 C9.88786004,9.14672699 9.83194862,9.15911965 9.78109375,9.18375 C9.73873415,9.2097083 9.7017738,9.2435864 9.67223438,9.28353125 C9.62327826,9.34123446 9.57784184,9.40183375 9.53617188,9.465 C9.48175,9.5285 9.43639063,9.58292187 9.38196875,9.63734375 C9.2706852,9.75604165 9.15253433,9.86810914 9.028125,9.97296875 C8.88777753,10.0811968 8.7391607,10.1782546 8.58364063,10.26325 C8.42886772,10.3489957 8.26442671,10.415989 8.09379688,10.4628125 C7.92960615,10.5157022 7.75830722,10.5432325 7.5858125,10.5444531 C7.44559341,10.545442 7.30666203,10.5176557 7.17760938,10.4628125 C7.03348153,10.4080157 6.90772296,10.3136941 6.81476563,10.1906719 C6.70590625,10.0818125 6.61520313,9.92760937 6.55170313,9.73710937 C6.47920313,9.555625 6.45198438,9.32892187 6.45198438,9.06585937 C6.45198438,8.90257812 6.45198438,8.71209375 6.470125,8.50345312 C6.48828125,8.303875 6.50642188,8.1134375 6.5245625,7.94103125 C6.57898438,7.5509375 6.660625,7.19720312 6.77854688,6.87064062 C6.88740625,6.56221875 7.01439063,6.29009375 7.15953125,6.072375 C7.30467188,5.85465625 7.458875,5.6823125 7.62215625,5.55532812 C7.7854375,5.43740625 7.93964063,5.37390625 8.09385938,5.37390625 C8.16642188,5.37390625 8.239,5.39204687 8.3115625,5.4101875 C8.37687731,5.43986172 8.44047711,5.47317441 8.5020625,5.50996875 C8.58473015,5.57154611 8.66349616,5.63819508 8.73790625,5.70953125 C8.81046875,5.78209375 8.88304688,5.86373437 8.94654688,5.9363125 C8.98282813,5.9998125 9.01910938,6.04517187 9.05540625,6.0633125 C9.09317368,6.1036212 9.13973684,6.13466687 9.19146875,6.15403125 C9.22775,6.18125 9.27310938,6.1903125 9.32753125,6.1903125 C9.41330151,6.19077836 9.49771374,6.16889311 9.57245313,6.1268125 C9.64501563,6.0815 9.690375,6.01795312 9.690375,5.92725 C9.68859037,5.8952858 9.67926305,5.8641983 9.66315625,5.83653125 L9.626875,5.76396875 C9.53615625,5.6641875 9.436375,5.56440625 9.32753125,5.45554687 C9.20844291,5.34882713 9.08104547,5.25175993 8.94654688,5.16526562 C8.80471879,5.08295564 8.65599621,5.01314537 8.5020625,4.956625 C8.35070813,4.90243024 8.19112376,4.87480996 8.03035938,4.87498355 C7.82117205,4.87498355 7.6142458,4.9182535 7.42254688,5.00198437 C7.22298438,5.09270312 7.05970313,5.19248437 6.92364063,5.31946875 C6.68319031,5.53971812 6.48359002,5.80075952 6.3340625,6.09053125 C6.17246395,6.39098841 6.0417786,6.70707176 5.94401563,7.03392187 C5.84421875,7.378625 5.77165625,7.71426562 5.735375,8.04989062 C5.69406296,8.35659345 5.67285104,8.66566953 5.67187104,8.97514062 C5.67156228,9.16393884 5.68979038,9.35231151 5.72629688,9.53754687 C5.75166535,9.72357091 5.80679687,9.90430207 5.88957813,10.0728125 C5.97308138,10.2484207 6.08666937,10.4080626 6.22520313,10.5445156 C6.37289706,10.6995829 6.54825212,10.8257033 6.74225,10.9163906 C7.01439063,11.0615312 7.31373438,11.1250312 7.64029688,11.1250312 C7.985,11.1250312 8.28434375,11.0797187 8.55648438,10.9889687 C8.81362011,10.901236 9.05772781,10.7791743 9.2821875,10.6260937 C9.49037125,10.4812205 9.67934684,10.3105365 9.84459375,10.118125 C9.99879688,9.93670312 10.134875,9.75528125 10.2618594,9.57385937 L10.2981406,9.50129687 C10.3104687,9.47588056 10.316681,9.44793304 10.3162994,9.4196875 L10.3162994,9.4196875 Z" id="path" fill="#FFFFFF"/>
                </g>
            </g>
        </g>
    </g>
</svg>
