<?xml version="1.0" encoding="UTF-8"?>
<svg width="14px" height="14px" viewBox="0 0 14 14" version="1.1" xmlns="http://www.w3.org/2000/svg" xmlns:xlink="http://www.w3.org/1999/xlink">
    <title>capcap</title>
    <g id="Etch&amp;Fair-mint&amp;burn" stroke="none" stroke-width="1" fill="none" fill-rule="evenodd">
        <g id="Fair-Mint--new" transform="translate(-728.000000, -235.000000)" fill="#EBB94C" fill-rule="nonzero">
            <g id="groupgroup-2" transform="translate(465.000000, 234.000000)">
                <g id="capcap" transform="translate(263.000000, 1.000000)">
                    <rect id="rectrect" opacity="0" x="0" y="0" width="14" height="14"></rect>
                    <path d="M10.0781953,7.4090625 L6.56657422,7.4090625 L6.56657422,3.9111543 C6.56657422,3.66953125 6.37069727,3.4736543 6.12907422,3.4736543 L2.17995312,3.4736543 C1.93833008,3.4736543 1.74245312,3.66953125 1.74245312,3.9111543 L1.74245312,11.7956973 C1.74245312,12.0373203 1.93833008,12.2331973 2.17995312,12.2331973 L10.0781953,12.2331973 C10.3198184,12.2331973 10.5156953,12.0373203 10.5156953,11.7956973 L10.5156953,7.8465625 C10.5156953,7.60493945 10.3198184,7.4090625 10.0781953,7.4090625 Z M5.69157422,4.3486543 L5.69157422,7.4090625 L2.61745313,7.4090625 L2.61745313,4.3486543 L5.69157422,4.3486543 Z M2.61745313,8.29777539 L5.69157422,8.29777539 L5.69157422,11.3581973 L2.61745313,11.3581973 L2.61745313,8.29777539 Z M9.64069531,11.3581973 L6.56657422,11.3581973 L6.56657422,8.2840625 L9.64069531,8.2840625 L9.64069531,11.3581973 Z" id="shapeshape"></path>
                    <path d="M11.532541,2.00563672 L7.70441602,2.00563672 C7.47018945,2.00563672 7.28031445,2.19551172 7.28031445,2.42973828 L7.28031445,6.25786328 C7.28031445,6.49208984 7.47018945,6.68196484 7.70441602,6.68196484 L11.532541,6.68196484 C11.7667676,6.68196484 11.9566426,6.49208984 11.9566426,6.25786328 L11.9566426,2.42973828 C11.9566426,2.19551172 11.7667676,2.00563672 11.532541,2.00563672 Z M11.1084531,5.83376172 L8.12851758,5.83376172 L8.12851758,2.85382617 L11.1084531,2.85382617 L11.1084531,5.83376172 Z" id="shapeshape"></path>
                    <polygon id="pathpath" points="9.18097852 3.90630078 10.0559785 3.90630078 10.0559785 4.78130078 9.18097852 4.78130078"></polygon>
                </g>
            </g>
        </g>
    </g>
</svg>
