<?xml version="1.0" encoding="UTF-8"?>
<svg  viewBox="0 0 12 12" version="1.1" xmlns="http://www.w3.org/2000/svg" xmlns:xlink="http://www.w3.org/1999/xlink">
    <title>assets</title>
    <g id="Profile" stroke="none" stroke-width="1"  fill-rule="evenodd">
        <g id="click" transform="translate(-738.000000, -165.000000)" fill-rule="nonzero">
            <g id="N-assets" transform="translate(738.000000, 165.000000)">
                <rect id="rect" opacity="0" x="0" y="0" width="12" height="12"></rect>
                <path d="M11.3364,8.5704 C11.0616,8.8776 10.7412,9.1464 10.3854,9.3678 L10.3752,9.3738 L10.374,9.3756 C9.2388,10.0896 7.6902,10.482 6.0138,10.482 C4.5822,10.482 3.1926,10.182 2.103,9.636 C1.4868,9.3276 0.987,8.949 0.6198,8.5224 C0.7002,9.2964 1.3092,10.0554 2.424,10.614 C3.4548,11.1312 4.7388,11.3844 6.0138,11.3844 C7.4862,11.3844 8.949,11.0466 10.0014,10.38 L10.0038,10.38 C10.8282,9.858 11.2656,9.219 11.3364,8.571 L11.3364,8.5704 Z M10.3854,7.7886 L10.3752,7.7946 L10.374,7.7952 C9.2388,8.511 7.6902,8.9034 6.0138,8.9034 C4.5822,8.9034 3.1926,8.6022 2.103,8.0574 C1.4868,7.7496 0.987,7.368 0.6192,6.9426 C0.6996,7.7178 1.3086,8.4768 2.4222,9.0354 C3.4542,9.5514 4.7382,9.8052 6.0132,9.8052 C7.4856,9.8052 8.9478,9.468 10.0002,8.802 L10.0032,8.8014 C10.8282,8.2776 11.2644,7.6392 11.3358,6.9918 C11.0589844,7.30174111 10.7388847,7.57010756 10.3854,7.7886 Z M10.3854,6.2094 L10.3752,6.2154 L10.374,6.2154 C9.2388,6.9318 7.6902,7.3254 6.0138,7.3254 C4.5822,7.3254 3.1926,7.0236 2.103,6.4794 C1.4868,6.171 0.987,5.7906 0.6198,5.3658 C0.7002,6.1404 1.3092,6.8976 2.424,7.4556 C3.4548,7.9716 4.7388,8.2266 6.0138,8.2266 C7.4862,8.2266 8.949,7.8876 10.0014,7.2228 L10.0038,7.221 C10.8294,6.699 11.2656,6.0606 11.3364,5.4114 C11.0593216,5.72164253 10.739039,5.99039701 10.3854,6.2094 L10.3854,6.2094 Z M0.6138,3.51 C0.5598,4.3782 1.1736,5.256 2.424,5.8824 C4.6452,6.9948 8.0376,6.8904 10.002,5.649 L10.0038,5.6478 C10.8648,5.103 11.3076,4.431 11.3466,3.753 C11.3496,3.711 11.3454,3.669 11.3442,3.627 C11.3442,3.5742 11.346,3.5196 11.3406,3.4668 C11.2578,2.694 10.6494,1.9392 9.537,1.3818 C8.5062,0.8658 7.2234,0.6108 5.9478,0.6108 C5.8518,0.6108 5.7558,0.6168 5.6604,0.6198 L5.6436,0.6198 C5.478,0.6252 5.3136,0.6354 5.1492,0.648 L5.1288,0.6498 C4.9656,0.6636 4.8036,0.6822 4.6416,0.705 L4.6218,0.708 C4.4604,0.732 4.3008,0.7578 4.1436,0.789 L4.1316,0.792 C3.321,0.9558 2.5698,1.2288 1.9572,1.6158 L1.956,1.6176 C1.0962,2.16 0.6528,2.8326 0.6138,3.5094 L0.6138,3.51 Z M9.4284,5.3556 C7.7442,6.4206 4.8348,6.5106 2.9322,5.5572 C1.0266,4.6032 0.8502,2.9682 2.5338,1.905 C4.218,0.84 7.125,0.75 9.03,1.704 C10.932,2.6562 11.112,4.2918 9.4284,5.3556 Z M2.7528,1.968 C1.1808,2.9652 1.3488,4.4904 3.126,5.3844 C4.911,6.2724 7.6242,6.1902 9.201,5.1966 C10.7736,4.1988 10.6074,2.673 8.8284,1.7802 C7.0458,0.8898 4.332,0.9744 2.7528,1.968 Z M4.2024,4.653 L3.957,4.8078 C3.864,4.8666 3.8298,4.8666 3.72,4.8114 L3.5964,4.7502 C3.4848,4.6938 3.4806,4.6746 3.5748,4.6164 L3.8196,4.461 C3.6114,4.3566 2.8734,3.843 3.0366,3.7404 C3.0534,3.7296 3.0534,3.7296 3.0966,3.7152 L3.7362,3.5148 C3.7518,3.5106 3.8106,3.5022 3.8358,3.5142 C3.873,3.534 4.0722,3.8748 4.4118,4.0872 L5.4822,3.411 C5.2518,3.129 4.7346,2.6532 5.454,2.1972 C6.2568,1.6902 7.2888,1.9476 7.584,2.082 L7.851,1.9134 C7.944,1.854 7.9782,1.8534 8.0898,1.9086 L8.2158,1.971 C8.3238,2.025 8.3268,2.0466 8.2338,2.1042 L7.9662,2.2734 C8.1354,2.3706 8.805,2.8416 8.6184,2.9604 C8.59361005,2.97476847 8.56633388,2.98433548 8.538,2.9886 L7.9764,3.1284 C7.9374,3.1404 7.9026,3.1404 7.8768,3.1284 C7.8402,3.1092 7.6596,2.7702 7.3926,2.6364 L6.3828,3.2748 C6.6096,3.5868 7.0548,4.0746 6.3552,4.5168 C5.5968,4.9962 4.6722,4.8186 4.203,4.653 L4.2024,4.653 L4.2024,4.653 Z M5.6112,4.182 C5.9292,3.9828 5.7708,3.7734 5.6952,3.66 L4.7514,4.2576 C4.9728,4.3206 5.3124,4.3716 5.6124,4.182 L5.6112,4.182 Z M6.1632,3.0294 L7.0536,2.4666 C6.9024,2.4222 6.5286,2.322 6.2076,2.5254 C5.9112,2.7114 6.0816,2.9268 6.1632,3.0294 Z" id="shape"></path>
            </g>
        </g>
    </g>
</svg>
