<?xml version="1.0" encoding="UTF-8"?>
<svg viewBox="0 0 14 14" version="1.1" xmlns="http://www.w3.org/2000/svg" xmlns:xlink="http://www.w3.org/1999/xlink">
    <title>btc-line</title>
    <g id="Profile" stroke="none" stroke-width="1"  fill-rule="evenodd">
        <g id="Assets" transform="translate(-746.000000, -483.000000)"  fill-rule="nonzero">
            <g id="group-2" transform="translate(112.000000, 483.000000)">
                <g id="btc-line" transform="translate(634.000000, 0.000000)">
                    <rect id="rect" opacity="0" x="0" y="0" width="14" height="14"></rect>
                    <path d="M11.6666667,7 C11.6666667,5.33276057 10.7772051,3.79216779 9.33333334,2.95854806 C7.88946165,2.12492834 6.11053835,2.12492834 4.66666665,2.95854806 C3.22279495,3.79216779 2.33333334,5.33276057 2.33333334,7 C2.33333334,9.57732883 4.42267117,11.6666667 7,11.6666667 C9.57732883,11.6666667 11.6666667,9.57732883 11.6666667,7 L11.6666667,7 Z M12.8333333,7 C12.8333333,10.22175 10.22175,12.8333333 7,12.8333333 C3.77825,12.8333333 1.16666666,10.22175 1.16666666,7 C1.16666666,3.77825 3.77825,1.16666666 7,1.16666666 C10.22175,1.16666666 12.8333333,3.77825 12.8333333,7 Z M9.74516666,6.16233334 C9.64366666,6.77658334 9.32225,7.07641668 8.88708334,7.18258334 C9.46575,7.50633334 9.74458334,7.99808334 9.4465,8.86083334 C9.07608334,9.94233334 8.24658334,10.0403333 7.14816666,9.83091666 L6.86466666,10.9725 L6.2265,10.8144167 L6.50941666,9.67283334 C6.33558332,9.62616668 6.15825,9.59233334 5.985,9.54275 L5.70208334,10.6843333 L5.06508334,10.5268333 L5.348,9.38466666 L4.07866666,9.03933334 L4.39366666,8.232 C4.39366666,8.232 4.87316666,8.36383334 4.86616666,8.35566666 C5.0435,8.39883332 5.13041666,8.274 5.166,8.18766666 L5.61866666,6.35775 L5.94883334,5.05691666 C5.96283334,4.91633332 5.9185,4.732 5.65891666,4.662 C5.67641666,4.65208334 5.19225,4.5465 5.19225,4.5465 L5.38066666,3.78116666 L6.68908334,4.1055 L6.96616666,2.98725 L7.62533334,3.15058334 L7.34825,4.26883334 C7.518,4.30616668 7.68308334,4.3505 7.85341666,4.39425 L8.12991666,3.276 L8.77158334,3.43466666 L8.48691666,4.58208334 C9.296,4.87958334 9.87875,5.31883334 9.74516666,6.16233334 L9.74516666,6.16233334 Z M6.77016666,6.38983334 C7.15341666,6.50533334 8.28975,6.84658334 8.48108334,6.0865 C8.65958334,5.36316666 7.67491668,5.14266666 7.21758334,5.04 C7.16333334,5.02833334 7.11666668,5.01783334 7.0805,5.00791666 L6.73808334,6.3805 L6.77016666,6.38983334 Z M6.17866666,8.61816666 L6.23408334,8.63508334 C6.70658334,8.77508334 8.04591668,9.1735 8.22791666,8.41925 C8.41458332,7.69241666 7.21058332,7.4095 6.671,7.28233334 C6.61208334,7.26891668 6.56075,7.25666668 6.5205,7.24616666 L6.17866666,8.61816666 L6.17866666,8.61816666 Z" id="shape"></path>
                </g>
            </g>
        </g>
    </g>
</svg>
