<?xml version="1.0" encoding="UTF-8"?>
<svg  viewBox="0 0 12 12" version="1.1" xmlns="http://www.w3.org/2000/svg" xmlns:xlink="http://www.w3.org/1999/xlink">
    <title>icon</title>
    <g id="Profile" stroke="none" stroke-width="1"  fill-rule="evenodd">
        <g id="click" transform="translate(-737.000000, -93.000000)"  fill-rule="nonzero">
            <g id="icon" transform="translate(737.000000, 93.000000)">
                <rect id="rect" opacity="0" x="0" y="0" width="12" height="12"></rect>
                <path d="M10.1367188,8.1984375 C9.8109375,9.25078125 8.07890625,10.0535156 5.99179688,10.0535156 C3.92109375,10.0535156 2.20078125,9.26367188 1.85507813,8.22421875 C1.81875,8.34140625 1.8,8.46210938 1.8,8.58398438 C1.8,9.80742188 3.68085938,10.7988281 6.00117188,10.7988281 C8.32148438,10.7988281 10.2023438,9.80742188 10.2023438,8.58398438 C10.2011719,8.45273438 10.1789063,8.32382813 10.1367188,8.1984375 L10.1367188,8.1984375 Z M10.1367188,6.66328125 C9.8109375,7.715625 8.07890625,8.51835938 5.99179688,8.51835938 C3.92109375,8.51835938 2.20078125,7.72851563 1.85507813,6.6890625 C1.81875,6.80625 1.8,6.92695313 1.8,7.04882813 C1.8,8.27226563 3.68085938,9.26367188 6.00117188,9.26367188 C8.32148438,9.26367188 10.2023438,8.27226563 10.2023438,7.04882813 C10.2011719,6.91757813 10.1789063,6.78867188 10.1367188,6.66328125 L10.1367188,6.66328125 Z M10.1367188,5.08125 C9.8109375,6.13359375 8.07890625,6.93632813 5.99179688,6.93632813 C3.92109375,6.93632813 2.20078125,6.14648438 1.85507813,5.10703125 C1.81875,5.22421875 1.8,5.34492188 1.8,5.46679688 C1.8,6.69023438 3.68085938,7.68164063 6.00117188,7.68164063 C8.32148438,7.68164063 10.2023438,6.69023438 10.2023438,5.46679688 C10.2011719,5.33554687 10.1789063,5.20664062 10.1367188,5.08125 Z M1.79882812,3.74882812 C1.79882812,4.54011559 2.59956693,5.27129537 3.89941404,5.66693911 C5.19926116,6.06258284 6.80073884,6.06258284 8.10058596,5.66693911 C9.40043307,5.27129537 10.2011719,4.54011559 10.2011719,3.74882813 C10.2011719,2.5256037 8.32024316,1.53398437 6,1.53398437 C3.67975684,1.53398437 1.79882812,2.5256037 1.79882812,3.74882812 L1.79882812,3.74882812 Z" id="shape"></path>
            </g>
        </g>
    </g>
</svg>
