<?xml version="1.0" encoding="UTF-8"?>
<svg viewBox="0 0 16 16" version="1.1" xmlns="http://www.w3.org/2000/svg" xmlns:xlink="http://www.w3.org/1999/xlink">
    <title>Confirming</title>
    <g id="Profile" stroke="none" stroke-width="1" fill="none" fill-rule="evenodd">
        <g id="Orders---sell" transform="translate(-1118.000000, -855.000000)" fill="#1E90FF" fill-rule="nonzero">
            <g id="Confirming" transform="translate(1118.000000, 855.000000)">
                <rect id="rect" opacity="0" x="0" y="0" width="16" height="16"/>
                <path d="M8,1.33333333 C11.6818333,1.33333333 14.6666667,4.31816666 14.6666667,8 C14.6666667,11.6818333 11.6818333,14.6666667 8,14.6666667 C4.31816667,14.6666667 1.33333333,11.6818333 1.33333333,8 C1.33333333,4.31816667 4.31816667,1.33333333 8,1.33333333 Z M8,9.83333333 C7.63181016,9.83333333 7.33333333,10.1318102 7.33333333,10.5 C7.33333333,10.8681898 7.63181016,11.1666667 8,11.1666667 C8.36818983,11.1666667 8.66666664,10.8681898 8.66666664,10.5 C8.66666664,10.1318102 8.36818983,9.83333333 8,9.83333333 L8,9.83333333 Z M8,4.16666667 C7.63181017,4.16666667 7.33333333,4.4651435 7.33333333,4.83333333 L7.33333333,8.5 C7.33333333,8.86818984 7.63181016,9.16666667 8,9.16666667 C8.36818984,9.16666667 8.66666667,8.86818984 8.66666667,8.5 L8.66666667,4.83333333 C8.66666667,4.4651435 8.36818983,4.16666667 8,4.16666667 L8,4.16666667 Z" id="shape"/>
            </g>
        </g>
    </g>
</svg>
