<?xml version="1.0" encoding="UTF-8"?>
<svg  viewBox="0 0 12 12" version="1.1" xmlns="http://www.w3.org/2000/svg" xmlns:xlink="http://www.w3.org/1999/xlink">
    <title>exit</title>
    <g id="Profile" stroke="none" stroke-width="1"  fill-rule="evenodd">
        <g id="click" transform="translate(-738.000000, -190.000000)"  fill-rule="nonzero">
            <g id="exit" transform="translate(738.000000, 190.000000)">
                <rect id="rect" opacity="0" x="0" y="0" width="12" height="12"></rect>
                <path d="M10.25,10.02825 C10.248901,10.1512371 10.1487417,10.2502798 10.02575,10.2499993 L1.97425,10.2499993 C1.85057102,10.2495884 1.75041158,10.149429 1.75,10.02575 L1.75,1.97425 C1.75041158,1.85057102 1.85057102,1.75041158 1.97425,1.7499993 L10.02575,1.7499993 C10.14975,1.7499993 10.25,1.84999999 10.25,1.97175 L10.25,3.7499993 L10.75,3.7499993 L10.75,1.97175 C10.7491724,1.57250529 10.4249952,1.24944713 10.02575,1.2499993 L1.97425,1.2499993 C1.57442913,1.2504134 1.2504134,1.57442913 1.25,1.97425 L1.25,10.02575 C1.2504134,10.4255709 1.57442913,10.7495866 1.97425,10.7499993 L10.02575,10.7499993 C10.4248815,10.7502773 10.7488971,10.42738 10.75,10.02825 L10.75,8.2499993 L10.25,8.2499993 L10.25,10.02825 L10.25,10.02825 Z M9.9825,6.25 L8.438,7.794 C8.39159793,7.84082918 8.36577348,7.90422114 8.36624269,7.97014462 C8.36671189,8.0360681 8.39343605,8.09908605 8.4405,8.14525 C8.48669736,8.19228056 8.54973396,8.21895953 8.61565734,8.2193869 C8.68158072,8.2198041 8.74495392,8.19393487 8.79175,8.1475 L10.73225,6.207 C10.7788468,6.16056406 10.8047193,6.09728027 10.8040146,6.0315 C10.8033874,5.96546848 10.7768038,5.9023326 10.73,5.85575 L8.755,3.88075 C8.70884568,3.83376264 8.64588117,3.80708732 8.5800191,3.80661193 C8.51415702,3.80614912 8.45081893,3.83192484 8.404,3.87825 C8.35759792,3.92507918 8.33177348,3.98847115 8.33224268,4.05439462 C8.33271189,4.1203181 8.35943605,4.18333605 8.4065,4.2295 L9.92925,5.75 L5.5,5.75 L5.5,6.25 L9.9825,6.25 L9.9825,6.25 Z" id="path"></path>
            </g>
        </g>
    </g>
</svg>
