<?xml version="1.0" encoding="UTF-8"?>
<svg  viewBox="0 0 20 20" version="1.1" xmlns="http://www.w3.org/2000/svg" xmlns:xlink="http://www.w3.org/1999/xlink">
    <title>flash</title>
    <g id="Profile" stroke="none" stroke-width="1" fill="none" fill-rule="evenodd">
        <g id="Transfer-&amp;-Sell-modal" transform="translate(-507.000000, -365.000000)" fill="#FFFFFF" fill-rule="nonzero">
            <g id="flash" transform="translate(507.000000, 365.000000)">
                <rect id="rect" opacity="0" x="0" y="0" width="20" height="20"/>
                <path d="M13.4472656,9.28515625 C13.453125,9.26953125 13.4570312,9.25585938 13.4609375,9.24023438 C13.4648438,9.22460938 13.46875,9.20898438 13.4707031,9.19335938 C13.4746094,9.17578125 13.4746094,9.15820312 13.4765625,9.140625 C13.4765625,9.13085938 13.4785156,9.12304688 13.4785156,9.11328125 C13.4785156,9.10742188 13.4765625,9.10351563 13.4765625,9.09765625 C13.4765625,9.08007813 13.4746094,9.0625 13.4707031,9.04492188 C13.46875,9.02929688 13.4667969,9.015625 13.4628906,9 C13.4589844,8.984375 13.453125,8.96875 13.4492188,8.95507812 C13.4433594,8.93945312 13.4394531,8.92382812 13.4316406,8.91015625 C13.4257813,8.89648438 13.4160156,8.8828125 13.4082031,8.86914062 C13.4003906,8.85546875 13.3925781,8.84179688 13.3828125,8.828125 C13.3730469,8.81445312 13.3632812,8.80273438 13.3515625,8.79101562 C13.3417969,8.77929688 13.3300781,8.76757812 13.3183594,8.75585938 L13.2832031,8.7265625 C13.2695312,8.71484375 13.2558594,8.70507812 13.2402344,8.6953125 C13.2363281,8.69335937 13.2324219,8.68945312 13.2265625,8.68554688 C13.21875,8.68164062 13.2089844,8.67773438 13.2011719,8.67382812 C13.1855469,8.66601562 13.1699219,8.65820312 13.1523438,8.65234375 C13.1367188,8.64648437 13.1230469,8.64257812 13.1074219,8.63867187 C13.0917969,8.63476562 13.0761719,8.63085938 13.0605469,8.62890625 L13.0078125,8.62304687 C12.9980469,8.62304687 12.9902344,8.62109375 12.9804688,8.62109375 L10.9375,8.62109375 L12.2480469,3.109375 C12.25,3.1015625 12.25,3.09179687 12.2519531,3.08398437 C12.2558594,3.06640625 12.2578125,3.04882812 12.2597656,3.03125 C12.2617188,3.015625 12.2617188,3 12.2617188,2.984375 C12.2617188,2.96875 12.2597656,2.953125 12.2578125,2.93554687 C12.2558594,2.91992187 12.2539062,2.90429687 12.25,2.88867187 C12.2460938,2.87304687 12.2421875,2.859375 12.2382812,2.84375 C12.2324219,2.828125 12.2285156,2.81445312 12.2207031,2.79882812 C12.2148438,2.78320312 12.2070312,2.76953125 12.1992188,2.75585937 C12.1914062,2.7421875 12.1835938,2.72851562 12.1757812,2.71679687 C12.1660156,2.703125 12.15625,2.69140625 12.1464844,2.67773437 C12.1367188,2.66601562 12.125,2.65429687 12.1132812,2.64257812 C12.1015625,2.6328125 12.0917969,2.62109375 12.078125,2.61132812 C12.0644531,2.59960937 12.0488281,2.58984375 12.0351562,2.58007812 C12.0273438,2.57617187 12.0214844,2.5703125 12.015625,2.56640625 C12.0097656,2.5625 12.0039062,2.56054687 11.9980469,2.55859375 C11.9824219,2.55078125 11.9667969,2.54296875 11.9511719,2.53710937 C11.9355469,2.53125 11.9199219,2.52539062 11.9042969,2.52148437 C11.8984375,2.51953125 11.890625,2.515625 11.8847656,2.515625 C11.8769531,2.51367187 11.8671875,2.51367187 11.859375,2.51171875 C11.8417969,2.5078125 11.8242188,2.50585937 11.8066406,2.50390625 C11.7910156,2.50195312 11.7753906,2.50195312 11.7597656,2.50195312 C11.7441406,2.50195312 11.7265625,2.50390625 11.7109375,2.50585937 C11.6953125,2.5078125 11.6796875,2.50976562 11.6640625,2.51367187 C11.6484375,2.51757812 11.6328125,2.52148437 11.6191406,2.52539062 C11.6035156,2.52929687 11.5898438,2.53515625 11.5742188,2.54101562 C11.5585938,2.546875 11.5449219,2.5546875 11.53125,2.5625 C11.5175781,2.5703125 11.5039063,2.578125 11.4921875,2.5859375 C11.4785156,2.59570312 11.4667969,2.60546875 11.453125,2.61523437 C11.4414062,2.625 11.4296875,2.63671875 11.4179688,2.6484375 C11.40625,2.66015625 11.3964844,2.66992187 11.3867188,2.68359375 C11.375,2.69726562 11.3652344,2.7109375 11.3554688,2.7265625 C11.3515625,2.734375 11.3457031,2.74023437 11.3417969,2.74609375 L6.5859375,10.9765625 C6.58203125,10.984375 6.578125,10.9941406 6.57421875,11.0019531 C6.56640625,11.0175781 6.55859375,11.0332031 6.55273438,11.0507812 C6.546875,11.0664062 6.54296875,11.0800781 6.5390625,11.0957031 C6.53515625,11.1113281 6.53125,11.1269531 6.52929688,11.1425781 C6.52539063,11.1601562 6.52539063,11.1777344 6.5234375,11.1953125 C6.5234375,11.2050781 6.52148438,11.2128906 6.52148438,11.2226562 C6.52148438,11.2285156 6.5234375,11.2324219 6.5234375,11.2382812 C6.5234375,11.2558594 6.52539063,11.2734375 6.52929688,11.2910156 C6.53125,11.3066406 6.53320312,11.3203125 6.53710938,11.3359375 C6.54101562,11.3515625 6.546875,11.3671875 6.55078125,11.3808594 C6.55664062,11.3964844 6.56054688,11.4121094 6.56835937,11.4257812 C6.57421875,11.4394531 6.58398438,11.453125 6.59179687,11.4667969 C6.59960937,11.4804687 6.60742187,11.4941406 6.6171875,11.5078125 C6.62695312,11.5214844 6.63671875,11.5332031 6.6484375,11.5449219 C6.65820312,11.5566406 6.66992188,11.5683594 6.68164062,11.5800781 L6.71679688,11.609375 C6.73046875,11.6210937 6.74414062,11.6308594 6.75976562,11.640625 C6.76367187,11.6425781 6.76757812,11.6464844 6.7734375,11.6503906 L6.8203125,11.6738281 L6.83203125,11.6796875 C6.859375,11.6914062 6.88671875,11.6992187 6.9140625,11.7050781 C6.91992187,11.7070312 6.92578125,11.7070312 6.93359375,11.7089844 C6.96289062,11.7148437 6.9921875,11.71875 7.02148438,11.71875 L9.18554687,11.71875 L7.95703125,16.8925781 C7.95507812,16.9003906 7.95507812,16.9101562 7.953125,16.9179687 C7.94921875,16.9355469 7.94726562,16.953125 7.9453125,16.9707031 C7.94335938,16.9863281 7.94335938,17.0019531 7.94335938,17.0175781 C7.94335938,17.0332031 7.9453125,17.0488281 7.94726562,17.0664062 C7.94921875,17.0820312 7.95117187,17.0976562 7.95507812,17.1132812 C7.95898437,17.1289062 7.96289062,17.1425781 7.96679688,17.1582031 C7.97265625,17.1738281 7.9765625,17.1875 7.984375,17.203125 C7.99023437,17.21875 7.99804687,17.2324219 8.00585938,17.2460937 C8.01367188,17.2597656 8.02148438,17.2734375 8.02929688,17.2851562 C8.0390625,17.2988281 8.04882812,17.3105469 8.05859375,17.3242187 C8.06835938,17.3359375 8.08007812,17.3476562 8.09179688,17.359375 C8.10351562,17.3691406 8.11328125,17.3808594 8.12695312,17.390625 C8.140625,17.4023437 8.15429687,17.4121094 8.16992188,17.421875 C8.17773437,17.4257812 8.18359375,17.4316406 8.18945312,17.4355469 C8.19726562,17.4414062 8.20703125,17.4433594 8.21484375,17.4492187 C8.22265625,17.453125 8.22851562,17.4570312 8.23632812,17.4589844 C8.26367188,17.4707031 8.29101562,17.4804687 8.31835938,17.4882812 C8.3203125,17.4882812 8.3203125,17.4882812 8.32226562,17.4902344 C8.33203125,17.4921875 8.33984375,17.4941406 8.34960937,17.4941406 C8.359375,17.4960937 8.3671875,17.4980469 8.37695312,17.4980469 C8.39453125,17.5 8.41015625,17.5 8.42773437,17.5019531 L8.43945313,17.5019531 C8.46289063,17.5019531 8.48632813,17.5 8.50976563,17.4960937 C8.51757813,17.4941406 8.52539063,17.4921875 8.53515625,17.4921875 C8.55078125,17.4882812 8.56835938,17.484375 8.58398438,17.4804688 C8.59179688,17.4785156 8.59960938,17.4746094 8.60742188,17.4726562 C8.625,17.4648438 8.64453125,17.4570312 8.66210938,17.4492187 C8.66601563,17.4472656 8.66992188,17.4453125 8.67578125,17.4433594 C8.69726563,17.4316406 8.71875,17.4179688 8.73828125,17.4023438 C8.7421875,17.3984375 8.74609375,17.3964844 8.75,17.3925781 C8.765625,17.3808594 8.77929688,17.3671875 8.79296875,17.3515625 C8.79882813,17.3457031 8.8046875,17.3378906 8.81054688,17.3320312 C8.8203125,17.3203125 8.83203125,17.3066406 8.83984375,17.2929687 C8.84570313,17.2851562 8.8515625,17.2773437 8.85546875,17.2675781 C8.85742188,17.2636719 8.86132813,17.2597656 8.86328125,17.2558594 L13.4199219,9.36328125 C13.4238281,9.35546875 13.4277344,9.34570312 13.4316406,9.33789062 C13.4335938,9.31835937 13.4414062,9.30273437 13.4472656,9.28515625 Z M10.2832031,11.3378906 C10.3457031,11.0722656 10.1816406,10.8066406 9.91601563,10.7421875 C9.87304688,10.7324219 9.83007813,10.7304688 9.78710938,10.7304688 C9.77929688,10.7304688 9.7734375,10.7285156 9.765625,10.7285156 L7.87109375,10.7285156 L10.5039062,6.16796875 L9.84375,8.94335938 C9.83789063,8.96484375 9.83789063,8.98828125 9.83398438,9.00976562 C9.83203125,9.015625 9.83203125,9.01953125 9.83203125,9.02539062 C9.83203125,9.03125 9.83007812,9.0390625 9.83007812,9.04492188 C9.82617188,9.06640625 9.82421875,9.08789062 9.82421875,9.11132812 C9.82421875,9.38476562 10.0449219,9.60546875 10.3183594,9.60546875 L12.1289063,9.60546875 L9.69140625,13.8300781 L10.2832031,11.3378906 Z" id="shape"/>
            </g>
        </g>
    </g>
</svg>
