<?xml version="1.0" encoding="UTF-8"?>
<svg  viewBox="0 0 20 20" version="1.1" xmlns="http://www.w3.org/2000/svg" xmlns:xlink="http://www.w3.org/1999/xlink">
    <title>directions_bike_FILL0_wght400_GRAD0_opsz48</title>
    <g id="Profile" stroke="none" stroke-width="1" fill="none" fill-rule="evenodd">
        <g id="Transfer-&amp;-Sell-modal" transform="translate(-144.000000, -365.000000)" fill="#FFFFFF" fill-rule="nonzero">
            <g id="directions_bike_FILL0_wght400_GRAD0_opsz48" transform="translate(144.000000, 365.000000)">
                <rect id="rect" opacity="0" x="0" y="0" width="20" height="20"/>
                <path d="M12.928,4.50327185 C12.5056842,4.50327185 12.144,4.35461034 11.8421053,4.05728732 C11.5402105,3.7599643 11.3894737,3.40267697 11.3894737,2.98500892 C11.3894737,2.56734087 11.5397895,2.20963711 11.8404211,1.91106484 C12.1410526,1.61249256 12.5023158,1.46341463 12.9246316,1.46341463 C13.3469474,1.46341463 13.7086316,1.61207615 14.0105263,1.90939917 C14.312421,2.20672219 14.4631579,2.56400952 14.4631579,2.98167757 C14.4631579,3.39934561 14.3128421,3.75704937 14.0122105,4.05562165 C13.7115789,4.35419393 13.3503158,4.50327185 12.928,4.50327185 L12.928,4.50327185 Z M8.77894736,8.79238549 L10.6526316,10.7703748 L10.6526316,15.9131469 L9.38947369,15.9131469 L9.38947369,11.7489589 L6.52631579,9.2712671 C6.4,9.16008328 6.29473685,9.01100536 6.21052632,8.8236169 C6.12631579,8.63622844 6.08421053,8.44550862 6.08421053,8.25104104 C6.08421053,8.05657345 6.12968421,7.86918499 6.22105263,7.68887566 C6.31242104,7.50856633 6.41389474,7.36281974 6.52631579,7.25163592 L9.03157894,4.77394408 C9.14399999,4.66276026 9.30189473,4.56240334 9.50526315,4.47204044 C9.7070912,4.3821601 9.92602403,4.33601577 10.1473684,4.33669675 C10.3717895,4.33669675 10.5861053,4.38167757 10.7894737,4.47204044 C10.9928421,4.56240332 11.1507368,4.66276026 11.2631579,4.77394408 L12.9052632,6.39797739 C13.2842105,6.77275431 13.7372632,7.09547887 14.264,7.3661511 C14.7907368,7.63682332 15.3835789,7.77215943 16.0421053,7.77215943 L16.0421053,9.02141582 C15.2058947,9.02141582 14.4496842,8.86525877 13.7726316,8.55294467 C13.0976149,8.24171319 12.4833148,7.81530785 11.9578947,7.29327782 L11.1157895,6.46044021 L8.77894736,8.79238549 L8.77894736,8.79238549 Z M4.10694738,10.4164188 C5.27073685,10.4164188 6.24589474,10.8057704 7.03157895,11.5840571 C7.81768421,12.3627602 8.21052631,13.3276026 8.21052631,14.4781678 C8.21052631,15.6291493 7.81684209,16.5935752 7.02989475,17.3706127 C6.24252633,18.1480666 5.26694737,18.5365854 4.10357895,18.5365854 C2.93978948,18.5365854 1.96463159,18.1472338 1.17894738,17.368947 C0.392842125,16.5902439 0,15.6254015 0,14.4748364 C0,13.3238548 0.393684217,12.3594289 1.18063158,11.5823914 C1.968,10.8049375 2.94357896,10.4164188 4.10694738,10.4164188 Z M4.10526316,17.5163593 C4.97557894,17.5163593 5.70526316,17.2248662 6.29473685,16.6418798 C6.88421054,16.0588935 7.17894738,15.3372397 7.17894738,14.4765021 C7.17894738,13.6157644 6.88421054,12.8941106 6.29473685,12.3111243 C5.70526316,11.728138 4.97557896,11.4366448 4.10526316,11.4366448 C3.23494735,11.4366448 2.50526315,11.728138 1.91578948,12.3111243 C1.32631579,12.8941106 1.03157895,13.6157644 1.03157895,14.4765021 C1.03157895,15.3372398 1.32631579,16.0588935 1.91578948,16.6418798 C2.50526317,17.2248662 3.23494737,17.5163593 4.10526316,17.5163593 L4.10526316,17.5163593 Z M15.896421,10.4164188 C17.0602105,10.4164188 18.0353684,10.8057704 18.8210526,11.5840571 C19.6071579,12.3627602 20,13.3276026 20,14.4781678 C20,15.6291493 19.6063158,16.5935752 18.8193684,17.3706127 C18.032,18.1480666 17.056421,18.5365854 15.8930526,18.5365854 C14.7292632,18.5365854 13.7541053,18.1472338 12.9684211,17.368947 C12.1823158,16.5902439 11.7894737,15.6254015 11.7894737,14.4748364 C11.7894737,13.3238548 12.1831579,12.3594289 12.9701053,11.5823914 C13.7574737,10.8049375 14.7330526,10.4164188 15.896421,10.4164188 Z M15.8947368,17.5163593 C16.7650526,17.5163593 17.4947369,17.2248662 18.0842105,16.6418798 C18.6736842,16.0588935 18.968421,15.3372397 18.968421,14.4765021 C18.968421,13.6157644 18.6736842,12.8941106 18.0842105,12.3111243 C17.4947368,11.728138 16.7650526,11.4366448 15.8947368,11.4366448 C15.0244211,11.4366448 14.2947368,11.728138 13.7052631,12.3111243 C13.1157895,12.8941106 12.8210526,13.6157644 12.8210526,14.4765021 C12.8210526,15.3372398 13.1157895,16.0588935 13.7052631,16.6418798 C14.2947368,17.2248662 15.024421,17.5163593 15.8947368,17.5163593 L15.8947368,17.5163593 Z" id="shape"/>
            </g>
        </g>
    </g>
</svg>
