<?xml version="1.0" encoding="UTF-8"?>
<svg  viewBox="0 0 12 12" version="1.1" xmlns="http://www.w3.org/2000/svg" xmlns:xlink="http://www.w3.org/1999/xlink">
    <title>my-order</title>
    <g id="Profile" stroke="none" stroke-width="1"  fill-rule="evenodd">
        <g id="click" transform="translate(-738.000000, -117.000000)"  fill-rule="nonzero">
            <g id="my-order" transform="translate(738.000000, 117.000000)">
                <rect id="rect" opacity="0" x="0" y="0" width="12" height="12"></rect>
                <path d="M10.35,0.7125 L9.3,0.7125 C9.15,0.7125 9,0.825 9,1.0125 C9,1.2 9.1125,1.3125 9.3,1.3125 L10.35,1.3125 C10.65,1.3125 10.9125,1.575 10.9125,1.875 L10.9125,10.2375 C10.9125,10.5375 10.65,10.8 10.35,10.8 L1.725,10.8 C1.425,10.8 1.1625,10.5375 1.1625,10.2375 L1.1625,1.875 C1.1625,1.575 1.425,1.3125 1.725,1.3125 L2.8875,1.3125 C3.0375,1.3125 3.1875,1.2 3.1875,1.0125 C3.1875,0.825 3.075,0.7125 2.8875,0.7125 L1.725,0.7125 C1.0875,0.7125 0.6,1.2 0.6,1.8375 L0.6,10.2 C0.6,10.8375 1.0875,11.325 1.725,11.325 L10.35,11.325 C10.9875,11.325 11.475,10.8375 11.475,10.2 L11.475,1.8375 C11.475,1.2 10.95,0.7125 10.35,0.7125 Z M4.6125,1.275 L7.425,1.275 C7.575,1.275 7.725,1.1625 7.725,0.975 C7.725,0.7875 7.6125,0.675 7.425,0.675 L4.6125,0.675 C4.4625,0.675 4.3125,0.7875 4.3125,0.975 C4.3125,1.1625 4.4625,1.275 4.6125,1.275 Z M3.45,4.05 L8.8875,4.05 C9.0375,4.05 9.1875,3.9375 9.1875,3.75 C9.1875,3.5625 9.075,3.45 8.8875,3.45 L3.45,3.45 C3.3,3.45 3.15,3.5625 3.15,3.75 C3.15,3.9375 3.2625,4.05 3.45,4.05 Z M3.45,6.3375 L8.8875,6.3375 C9.0375,6.3375 9.1875,6.225 9.1875,6.0375 C9.1875,5.85 9.075,5.7375 8.8875,5.7375 L3.45,5.7375 C3.3,5.7375 3.15,5.85 3.15,6.0375 C3.15,6.225 3.2625,6.3375 3.45,6.3375 Z M3.45,8.625 L8.8875,8.625 C9.0375,8.625 9.1875,8.5125 9.1875,8.325 C9.1875,8.1375 9.075,8.025 8.8875,8.025 L3.45,8.025 C3.3,8.025 3.15,8.1375 3.15,8.325 C3.15,8.5125 3.2625,8.625 3.45,8.625 Z" id="path"></path>
            </g>
        </g>
    </g>
</svg>
