<?xml version="1.0" encoding="UTF-8"?>
<svg  viewBox="0 0 12 12" version="1.1" xmlns="http://www.w3.org/2000/svg" xmlns:xlink="http://www.w3.org/1999/xlink">
    <title>my</title>
    <g id="Profile" stroke="none" stroke-width="1"  fill-rule="evenodd">
        <g id="clickclick" transform="translate(-738.000000, -140.000000)"  fill-rule="nonzero">
            <g id="mymy" transform="translate(738.000000, 140.000000)">
                <rect id="rectrect" opacity="0" x="0" y="0" width="12" height="12"></rect>
                <path d="M6,0.846560848 C6.6962963,0.846560848 7.37142857,0.982010578 8.00634921,1.25079366 C8.62010583,1.51111112 9.17037037,1.88148149 9.64444445,2.35555555 C10.1185185,2.82962962 10.4888889,3.37989417 10.7492063,3.99365079 C11.0179894,4.62857142 11.1534392,5.3037037 11.1534392,6 C11.1534392,6.6962963 11.0179894,7.37142857 10.7492063,8.00634921 C10.4888889,8.62010583 10.1185185,9.17037037 9.64444445,9.64444445 C9.17037037,10.1185185 8.62010583,10.4888889 8.00634921,10.7492063 C7.37142858,11.0179894 6.6962963,11.1534392 6,11.1534392 C5.3037037,11.1534392 4.62857143,11.0179894 3.99365079,10.7492063 C3.37989417,10.4888889 2.82962962,10.1185185 2.35555555,9.64444445 C1.88148148,9.17037037 1.51111111,8.62010583 1.25079366,8.00634921 C0.98201059,7.37142858 0.846560848,6.6962963 0.846560848,6 C0.846560848,5.3037037 0.982010578,4.62857143 1.25079366,3.99365079 C1.51111112,3.37989417 1.88148149,2.82962962 2.35555555,2.35555555 C2.82962962,1.88148148 3.37989417,1.51111111 3.99365079,1.25079366 C4.62857142,0.98201059 5.3037037,0.846560848 6,0.846560848 M6,0 C2.68571428,0 0,2.68571428 0,6 C0,9.31428572 2.68571428,12 6,12 C9.31428572,12 11.9978836,9.31216931 11.9978836,6 C11.9978836,2.68783069 9.31216931,0 6,0 Z" id="shape"></path>
                <path d="M8.48042329,8.35132275 C8.38941799,8.35132275 8.30052911,8.38306879 8.22857143,8.44021164 C7.5957672,8.93968254 6.81904763,9.21058201 6,9.21058201 C5.18095238,9.21058201 4.4042328,8.93968254 3.77142857,8.44021164 C3.69947089,8.38306879 3.61058201,8.35132275 3.51957671,8.35132275 C3.13862433,8.35132275 2.96931217,8.83386244 3.26984127,9.06878307 C4.02116402,9.66137566 4.96931217,10.0148148 6,10.0148148 C7.03068783,10.0148148 7.97883598,9.66137566 8.73015873,9.06878307 C9.02857143,8.83386244 8.86137566,8.35132275 8.48042329,8.35132275 L8.48042329,8.35132275 Z" id="pathpath"></path>
            </g>
        </g>
    </g>
</svg>
