<?xml version="1.0" encoding="UTF-8"?>
<svg  viewBox="0 0 20 20" version="1.1" xmlns="http://www.w3.org/2000/svg" xmlns:xlink="http://www.w3.org/1999/xlink">
    <title>rocket</title>
    <g id="Profile" stroke="none" stroke-width="1" fill="none" fill-rule="evenodd">
        <g id="Transfer-&amp;-Sell-modal" transform="translate(-327.000000, -365.000000)" fill="#FFFFFF" fill-rule="nonzero">
            <g id="rocket" transform="translate(327.000000, 365.000000)">
                <rect id="rect" opacity="0" x="0" y="0" width="20" height="20"/>
                <path d="M12.6580764,14.0470563 L12.6289239,13.2474445 L13.2352962,12.725198 C17.1950408,9.31102193 18.7826035,5.18885623 18.2295386,1.76218627 C14.7737161,1.19995918 10.6182333,2.77502795 7.21571822,6.73310664 L6.70180104,7.33114967 L5.91301725,7.31282523 C4.73025805,7.28533857 3.7274115,7.56270395 2.73289426,8.23154594 L6.43526375,10.7136744 L5.69395691,12.0513584 C5.5157101,12.372869 5.68312883,13.0925197 6.26201451,13.6689065 C6.84006725,14.2452934 7.57804236,14.4185427 7.88872488,14.2519569 L9.22307715,13.5339721 L11.7160337,17.2696587 C12.4223575,16.2518194 12.7013887,15.2456412 12.6572435,14.0462234 L12.6580764,14.0470563 Z M19.4206271,0.314555645 L19.6255276,0.367030176 L19.6771692,0.570264844 C20.6042192,4.04857641 19.6571789,9.38848434 14.3222686,13.9862525 C14.4013969,16.1593643 13.6309375,17.8968542 11.8368084,19.6843199 L11.5286247,19.9908378 L8.67834158,15.7187449 C7.67799383,16.2576499 6.16289596,15.9219796 5.08591873,14.849167 C4.00727566,13.7746885 3.67160525,12.2654212 4.23633113,11.2450831 L5.41601562e-05,8.40479518 L0.30740498,8.09911021 C2.05155834,6.36162029 3.79654463,5.59699145 5.95216492,5.64696721 C10.5416038,0.308725137 15.9289887,-0.606663848 19.4206271,0.314555645 Z M4.19801641,15.7245754 C4.75607885,16.2826378 4.63447121,17.2771551 3.95313527,17.958491 C3.05523779,18.8572214 0.664731523,19.2578603 0.664731523,19.2578603 C0.664731523,19.2578603 1.15949137,16.7757318 1.96576664,15.9702894 C2.64710258,15.2889535 3.63828811,15.1640141 4.19801641,15.7245754 Z M12.9104539,5.83104451 C12.2204329,5.83104451 11.6610604,6.39041705 11.6610604,7.08043804 C11.6610604,7.77045903 12.2204329,8.32983156 12.9104539,8.32983156 C13.6004749,8.32983156 14.1598474,7.77045903 14.1598474,7.08043804 C14.1598474,6.39041705 13.6004749,5.83104451 12.9104539,5.83104451 Z" id="shape"/>
            </g>
        </g>
    </g>
</svg>
