<?xml version="1.0" encoding="UTF-8"?>
<svg  viewBox="0 0 16 16" version="1.1" xmlns="http://www.w3.org/2000/svg" xmlns:xlink="http://www.w3.org/1999/xlink">
    <title>success</title>
    <g id="Profile" stroke="none" stroke-width="1" fill="none" fill-rule="evenodd">
        <g id="Mints" transform="translate(-1049.000000, -435.000000)" fill-rule="nonzero">
            <g id="success" transform="translate(1049.000000, 435.000000)">
                <rect id="rect" fill="#000000" opacity="0" x="0" y="0" width="16" height="16"/>
                <path d="M0,8 C0,3.58179311 3.58179311,0 8,0 C12.4182069,0 16,3.58179311 16,8 C16,12.4182069 12.4182069,16 8,16 C3.58179311,16 0,12.4182069 0,8 Z M6.55172414,11.0411035 C6.76074687,11.2566439 7.10375459,11.2654704 7.3235862,11.0609655 L12.566069,6.18703448 C12.787513,5.97923873 12.7994061,5.63155685 12.5926791,5.40911472 C12.3859522,5.18667259 12.0383316,5.1731053 11.8148965,5.37875862 L6.98482759,9.90289655 L4.71724138,7.56468966 C4.58042939,7.42125604 4.37718876,7.36223716 4.18483115,7.41008348 C3.99247354,7.4579298 3.8405661,7.60528689 3.78689362,7.7961009 C3.73322115,7.98691491 3.78603359,8.19185594 3.92524138,8.33296552 L6.552,11.0411035 L6.55172414,11.0411035 Z" id="shape" fill="#EBB94C"/>
            </g>
        </g>
    </g>
</svg>
