<?xml version="1.0" encoding="UTF-8"?>
<svg width="15px" height="15px" viewBox="0 0 15 15" version="1.1" xmlns="http://www.w3.org/2000/svg" xmlns:xlink="http://www.w3.org/1999/xlink">
    <title>searchsearchsearchsearch</title>
    <g id="Explorer" stroke="none" stroke-width="1"  fill-rule="evenodd">
        <g id="Explorer-detail-page--Holders" transform="translate(-40.000000, -1690.000000)" fill-rule="nonzero">
            <g id="searchsearchsearchsearch" transform="translate(40.000000, 1690.000000)">
                <rect id="searchsearch" opacity="0" x="0" y="0" width="15" height="15"></rect>
                <path d="M9.375,6.6796875 L7.640625,6.6796875 L7.640625,4.6875 C7.640625,4.42861652 7.43075848,4.21875 7.171875,4.21875 C6.91299152,4.21875 6.703125,4.42861652 6.703125,4.6875 L6.703125,6.6796875 L4.6875,6.6796875 C4.42861652,6.6796875 4.21875,6.88955402 4.21875,7.1484375 C4.21875,7.40732098 4.42861652,7.6171875 4.6875,7.6171875 L6.703125,7.6171875 L6.703125,9.375 C6.703125,9.63388348 6.91299152,9.84375 7.171875,9.84375 C7.43075848,9.84375 7.640625,9.63388348 7.640625,9.375 L7.640625,7.6171875 L9.375,7.6171875 C9.63388348,7.6171875 9.84375,7.40732098 9.84375,7.1484375 C9.84375,6.88955402 9.63388348,6.6796875 9.375,6.6796875 Z M13.4657813,13.27125 L11.4309375,11.2364062 C12.4776563,10.1414063 13.125,8.66203125 13.125,7.03125 C13.125,3.67125 10.39125,0.9375 7.03125,0.9375 C3.67125,0.9375 0.9375,3.67125 0.9375,7.03125 C0.9375,10.39125 3.67125,13.125 7.03125,13.125 C8.42296875,13.125 9.70359375,12.650625 10.730625,11.8621875 L12.8025,13.9340625 C12.8902196,14.0222856 13.0094955,14.0718913 13.1339063,14.0718913 C13.258317,14.0718913 13.3775929,14.0222856 13.4653125,13.9340625 C13.6484336,13.7511451 13.6486434,13.4544262 13.4657813,13.27125 Z M1.875,7.03125 C1.875,4.18828125 4.18828125,1.875 7.03125,1.875 C9.87421875,1.875 12.1875,4.18828125 12.1875,7.03125 C12.1875,9.87421875 9.87421875,12.1875 7.03125,12.1875 C4.18828125,12.1875 1.875,9.87421875 1.875,7.03125 Z" id="searchsearch"></path>
            </g>
        </g>
    </g>
</svg>
