<?xml version="1.0" encoding="UTF-8"?>
<svg width="15px" height="15px" viewBox="0 0 15 15" version="1.1" xmlns="http://www.w3.org/2000/svg" xmlns:xlink="http://www.w3.org/1999/xlink">
    <title>区块链-4</title>
    <g id="Explorer" stroke="none" stroke-width="1" fill-rule="evenodd">
        <g id="Explorer-detail-page--Holders" transform="translate(-134.000000, -1690.000000)" fill-rule="nonzero">
            <g id="区块链-4" transform="translate(134.000000, 1690.000000)">
                <rect id="矩形" opacity="0" x="0" y="0" width="15" height="15"></rect>
                <path d="M7.49870946,14.5312499 C7.15934048,14.5316258 6.82584711,14.4426943 6.53172735,14.2733868 L2.11713161,11.7231326 C1.51877619,11.377672 1.1501491,10.7392409 1.1501491,10.0483196 L1.1501491,4.95038983 C1.14970622,4.25900791 1.51837711,3.61997836 2.11713161,3.27428747 L6.53172735,0.726611906 C7.13009796,0.381142472 7.86732096,0.381142472 8.46569158,0.726611906 L12.8828659,3.27557678 C13.4816204,3.62126767 13.8502913,4.26029722 13.8498485,4.95167913 L13.8498485,10.0483196 C13.8502913,10.7397015 13.4816204,11.378731 12.8828659,11.7244219 L8.46569158,14.2720975 C8.17169662,14.4418555 7.83819556,14.5312499 7.49870946,14.5312499 L7.49870946,14.5312499 Z M7.49870946,0.855541897 C7.22721427,0.855241144 6.96041957,0.926386395 6.72512376,1.06183237 L2.31052804,3.61079724 C1.83192347,3.88711971 1.53694233,4.39774489 1.53694233,4.95038983 L1.53694233,10.0483196 C1.53694233,10.6009645 1.83192347,11.1115897 2.31052804,11.3879122 L6.72512376,13.936877 C7.20382026,14.2132526 7.79359867,14.2132526 8.27229517,13.936877 L12.6868909,11.3879122 C13.1654955,11.1115897 13.4604766,10.6009645 13.4604766,10.0483196 L13.4604766,4.95038983 C13.4604766,4.39774489 13.1654955,3.88711971 12.6868909,3.61079724 L8.27229517,1.06183237 C8.03699936,0.926386395 7.77020465,0.855241144 7.49870946,0.855541897 Z M4.30380053,8.33353795 C3.6517164,8.33282607 3.12360818,7.80375619 3.12408232,7.15167185 C3.12455709,6.49958751 3.65343465,5.97128669 4.30551912,5.97152364 C4.9576036,5.97176075 5.48609733,6.50044593 5.48609733,7.15253044 C5.48538582,7.80499138 4.95626185,8.33353795 4.30380053,8.33353795 Z M4.30380053,6.35831579 C3.86533643,6.35902758 3.51040131,6.71492416 3.51087517,7.15338858 C3.51134997,7.591853 3.86705428,7.94698081 4.3055189,7.94674405 C4.74398351,7.94650705 5.09930867,7.59099512 5.09930867,7.15253044 C5.09999083,6.94122159 5.01644081,6.73835078 4.86714313,6.58881113 C4.71784545,6.43927147 4.51511022,6.35539303 4.30380053,6.35573612 L4.30380053,6.35831579 Z M6.78572131,12.1679444 C6.13346887,12.1679444 5.6047138,11.6391893 5.6047138,10.9869369 C5.6047138,10.3346845 6.13346887,9.80592939 6.78572131,9.80592939 C7.43797374,9.80592939 7.96672881,10.3346845 7.96672881,10.9869369 C7.96601824,11.6388948 7.43767919,12.1672338 6.78572131,12.1679444 L6.78572131,12.1679444 Z M6.78572131,10.1927222 C6.46449147,10.1927222 6.17489199,10.3862264 6.05196265,10.6830041 C5.92903331,10.9797818 5.99698294,11.3213877 6.22412674,11.5485315 C6.45127054,11.7756753 6.79287642,11.8436249 7.0896541,11.7206956 C7.38643177,11.5977662 7.57993596,11.3081667 7.57993596,10.9869369 C7.5792261,10.5485986 7.22405958,10.1934321 6.78572131,10.1927222 L6.78572131,10.1927222 Z M8.4128299,5.8142279 C7.93440123,5.81474863 7.50281589,5.52688256 7.31948821,5.08497167 C7.13616052,4.64306079 7.23723086,4.13422136 7.57553122,3.795921 C7.91383158,3.45762064 8.42267101,3.35655031 8.86458189,3.53987799 C9.30649277,3.72320568 9.59435885,4.15479101 9.59383811,4.63321968 C9.59312683,5.28517756 9.06478778,5.81351661 8.4128299,5.8142279 L8.4128299,5.8142279 Z M8.4128299,3.83771467 C8.09096177,3.83719405 7.80049669,4.03068127 7.67696145,4.32789906 C7.55342621,4.62511684 7.62116754,4.96748854 7.84857831,5.19526849 C8.07598909,5.42304844 8.41825046,5.49134503 8.71566823,5.36829206 C9.01308601,5.24523909 9.20704455,4.95508824 9.20704455,4.63321968 C9.20704455,4.19437799 8.85167102,3.83842697 8.4128299,3.83771467 Z M11.1526126,9.49391649 C10.6749396,9.49391649 10.2443014,9.20617326 10.0615039,8.764861 C9.87870639,8.32354874 9.97974838,7.81557635 10.3175142,7.47781057 C10.6552799,7.14004479 11.1632523,7.0390028 11.6045646,7.22180033 C12.0458768,7.40459786 12.3336201,7.83523605 12.3336201,8.312909 C12.3329095,8.96486687 11.8045705,9.49320591 11.1526126,9.49391649 Z M11.1526126,7.51869435 C10.8313828,7.51869435 10.5417833,7.71219854 10.4188539,8.00897621 C10.2959246,8.30575389 10.3638742,8.64735977 10.591018,8.87450357 C10.8181618,9.10164737 11.1597677,9.169597 11.4565454,9.04666766 C11.7533231,8.92373832 11.9468367,8.63413884 11.9468367,8.312909 C11.9478555,8.10148211 11.8646749,7.89834334 11.7156564,7.74835714 C11.5666378,7.59837094 11.3640417,7.51387728 11.1526126,7.51353711 L11.1526126,7.51869435 Z M6.30738749,10.3177853 C6.24288697,10.3178526 6.18253201,10.2860016 6.14622379,10.2326908 L4.69832924,8.07567604 C4.64550247,7.98762885 4.67069071,7.87364735 4.75570056,7.81606003 C4.84071042,7.75847271 4.95590429,7.77735666 5.01807798,7.85907205 L6.47112979,10.0160868 C6.53064411,10.1051552 6.50702202,10.2255703 6.4182681,10.2855525 C6.38556025,10.3075683 6.34680064,10.3188357 6.30738749,10.3177853 L6.30738749,10.3177853 Z M7.50773464,10.5086031 L7.49742015,10.5086031 C7.39087009,10.5023649 7.30920789,10.4115013 7.31433821,10.3048922 L7.57993596,5.3681261 C7.58563249,5.2613162 7.67683696,5.17934762 7.78364686,5.18504415 C7.89045676,5.19074067 7.97242534,5.28194515 7.96672881,5.38875504 L7.70113105,10.3255211 C7.6950139,10.427991 7.61038573,10.5081057 7.50773464,10.5086031 L7.50773464,10.5086031 Z M10.6446246,7.65536333 C10.5844771,7.65506694 10.5278427,7.6269877 10.4911968,7.57929189 L8.90405681,5.49705705 C8.85783601,5.44258541 8.84540827,5.36706997 8.87173517,5.30065901 C8.89806207,5.23424804 8.95885526,5.18775913 9.02984407,5.1797522 C9.10083287,5.17174527 9.17045405,5.20352456 9.21091248,5.26240271 L10.7980525,7.34463755 C10.8627067,7.42941162 10.8465589,7.55051999 10.7619518,7.61539255 C10.7284277,7.64148862 10.6871079,7.65556458 10.6446246,7.65536333 L10.6446246,7.65536333 Z" id="形状"></path>
            </g>
        </g>
    </g>
</svg>
