<?xml version="1.0" encoding="UTF-8"?>
<svg width="15px" height="15px" viewBox="0 0 15 15" version="1.1" xmlns="http://www.w3.org/2000/svg" xmlns:xlink="http://www.w3.org/1999/xlink">
    <title>交易数据</title>
    <g id="Explorer" stroke="none" stroke-width="1" fill-rule="evenodd">
        <g id="Explorer-detail-page--Holders" transform="translate(-225.000000, -1690.000000)" fill-rule="nonzero">
            <g id="交易数据" transform="translate(225.000000, 1690.000000)">
                <rect id="矩形" opacity="0" x="0" y="0" width="15" height="15"></rect>
                <path d="M7.515,0.3825 C7.02,0.3825 6.5325,0.435 6.0525,0.5325 C5.73,0.6 5.52,0.915 5.5875,1.245 C5.655,1.5675 5.97,1.7775 6.3,1.71 C6.6975,1.6275 7.11,1.5825 7.515,1.5825 C10.785,1.5825 13.44,4.2375 13.44,7.5075 C13.44,10.7775 10.785,13.4325 7.515,13.4325 C4.245,13.4325 1.59,10.7775 1.59,7.5075 C1.59,6.3225 1.9425,5.175 2.6025,4.1925 C2.7975,3.9 3.0225,3.63 3.27,3.375 C3.5025,3.135 3.495,2.76 3.255,2.5275 C3.015,2.295 2.64,2.3025 2.4075,2.5425 C2.115,2.8425 1.845,3.1725 1.605,3.525 C0.81,4.7025 0.39,6.0825 0.39,7.5075 C0.39,11.4375 3.585,14.6325 7.515,14.6325 C11.445,14.6325 14.64,11.4375 14.64,7.5075 C14.64,3.5775 11.445,0.3825 7.515,0.3825 Z" id="路径"></path>
                <path d="M3.195,6.5175 C3.195,6.8475 3.465,7.1175 3.795,7.1175 L11.2425,7.1175 C11.4825,7.1175 11.7075,6.975 11.7975,6.75 C11.8875,6.525 11.8425,6.27 11.67,6.0975 L9.735,4.1625 C9.5025,3.93 9.12,3.93 8.8875,4.1625 C8.655,4.395 8.655,4.7775 8.8875,5.01 L9.8025,5.925 L3.8025,5.925 C3.465,5.9175 3.195,6.1875 3.195,6.5175 L3.195,6.5175 Z M11.8425,8.505 C11.8425,8.175 11.5725,7.905 11.2425,7.905 L3.795,7.905 C3.555,7.905 3.33,8.0475 3.24,8.2725 C3.15,8.4975 3.195,8.7525 3.3675,8.925 L5.3025,10.86 C5.4225,10.98 5.5725,11.0325 5.73,11.0325 C5.8875,11.0325 6.0375,10.9725 6.1575,10.86 C6.39,10.6275 6.39,10.245 6.1575,10.0125 L5.2425,9.0975 L11.2425,9.0975 C11.5725,9.105 11.8425,8.835 11.8425,8.505 L11.8425,8.505 Z" id="形状"></path>
            </g>
        </g>
    </g>
</svg>
