<?xml version="1.0" encoding="UTF-8"?>
<svg width="25px" height="25px" viewBox="0 0 25 25" version="1.1" xmlns="http://www.w3.org/2000/svg"
  xmlns:xlink="http://www.w3.org/1999/xlink">
  <g id="Staking-Pool" stroke="none" stroke-width="1" fill="none" fill-rule="evenodd">
    <g id="Staking-Pool-BTC-Stalking-Season-1" transform="translate(-590.000000, -31.000000)" fill="#EBB94C"
      fill-rule="nonzero">
      <g transform="translate(590.000000, 31.000000)">
        <rect opacity="0" x="0" y="0" width="25" height="25"></rect>
        <path
          d="M20.9959717,11.2539795 C20.966748,11.50979 20.966748,11.7875244 20.9959717,12.0725098 L20.9959717,14.2283936 C20.9959717,18.1529785 18.3064941,21.4709961 14.6888428,22.4356689 L14.6888428,21.1421631 C14.6888428,19.9289551 13.7095459,18.9496582 12.5036621,18.9496582 L12.4963379,18.9496582 C11.2904297,18.9496582 10.303833,19.9289551 10.303833,21.1421631 L10.303833,22.4356689 C6.68618164,21.4636963 4.00402832,18.1456543 4.00402832,14.2283936 L4.00402832,10.5304687 C4.9760498,11.3197754 6.27692871,12.7595215 6.1965332,14.7474121 C7.00773926,11.005542 8.61560059,10.4427734 9.97495117,8.90073242 C11.7436035,6.89094238 12.2697754,4.68378906 11.2539062,2.56435547 C15.6535645,4.09179688 16.7936523,9.99697266 16.4282471,13.1030273 C18.0141602,10.2892822 20.0093506,9.53654785 20.9959717,9.33920898 L20.9959717,11.2539795 Z">
        </path>
      </g>
    </g>
  </g>
</svg>