<?xml version="1.0" encoding="UTF-8"?>
<svg width="15px" height="15px" viewBox="0 0 15 15" version="1.1" xmlns="http://www.w3.org/2000/svg" xmlns:xlink="http://www.w3.org/1999/xlink">
    <title>searchsearchsearchsearch</title>
    <g id="Explorer" stroke="none" stroke-width="1" fill-rule="evenodd">
        <g id="Explorer-detail-page--Holders" transform="translate(-312.000000, -1690.000000)" fill-rule="nonzero">
            <g id="searchsearchsearchsearch" transform="translate(312.000000, 1690.000000)">
                <rect id="searchsearch" opacity="0" x="0" y="0" width="14.9999973" height="14.9999973"></rect>
                <path d="M14.3777869,8.05769856 C14.3210869,7.30589869 14.175887,6.55829883 13.956887,5.89469894 C13.6214871,4.87769913 13.1207871,3.9065993 12.5468872,3.15869943 C12.3899873,2.95469947 12.0869873,2.90819948 11.8688874,3.05489945 C11.6510874,3.20039943 11.6012874,3.48389938 11.7572874,3.68789934 C12.2714873,4.35749922 12.7226872,5.23589906 13.0286872,6.1625989 C13.2257871,6.76019879 13.3568871,7.43699867 13.4081871,8.12099855 C13.5950871,10.6130981 12.4982873,12.6485977 10.3772876,13.8032975 C10.0298877,11.133298 7.8143881,10.2617982 7.71238812,10.2227982 C7.57568804,10.1711325 7.42349116,10.1798544 7.29358819,10.2467982 C5.36458854,11.247898 4.80298864,12.9272977 4.64008867,13.8671975 C2.73148901,12.9287977 1.57108922,11.162098 1.57108922,9.12539837 C1.57108922,7.75379861 2.30218908,6.48269884 3.80548882,5.24099906 C4.00528878,5.07569909 4.20898874,4.91309912 4.41268871,4.75049915 C5.51668851,3.86999931 6.6590883,2.96009947 7.2347882,1.57469972 C7.29748819,1.42529974 7.35178818,1.28969977 7.39798817,1.16759979 C8.41498799,1.83629967 10.6160876,3.64139935 11.3303875,7.09439873 C11.3813875,7.34099868 11.6372874,7.50149866 11.8991874,7.45409866 C12.1628873,7.40669867 12.3353873,7.16879872 12.2840873,6.92249876 C11.2970875,2.15009961 7.74868811,0.265499952 7.34548818,0.0647999884 C7.33198818,0.0572999897 7.31758819,0.0512999908 7.30318819,0.044399992 C7.06258823,-0.0626999888 6.77518828,0.0305999945 6.6572883,0.253799955 C6.62428831,0.316799943 6.60838831,0.383999931 6.60748831,0.450899919 C6.56188832,0.618599889 6.37258836,1.1366998 6.32938836,1.24559978 C5.84218845,2.41799957 4.84108863,3.21539942 3.78148882,4.05989927 C3.57358886,4.22579924 3.36598889,4.39199921 3.16138893,4.56059918 C1.46158924,5.96549893 0.59998939,7.50119866 0.59998939,9.12539837 C0.59998939,11.7464979 2.2403891,13.9859975 4.88098862,14.9681973 C4.93828861,14.9897973 4.9991886,15 5.05948859,15 C5.15689913,15.0003135 5.25236267,14.9727258 5.33458854,14.9204973 C5.46838852,14.8355973 5.5475885,14.6930974 5.5463885,14.5424974 C5.5457885,14.4500974 5.5535885,12.3386978 7.54798814,11.160298 C8.07478805,11.443198 9.4514878,12.3857978 9.4514878,14.5256974 C9.4514878,14.6801974 9.53548779,14.8244973 9.67378776,14.9075973 C9.81443718,14.9916595 9.98678112,15.0034761 10.1375877,14.9393973 C13.0238872,13.7165975 14.6090869,11.143498 14.3777869,8.05739856" id="searchsearch"></path>
            </g>
        </g>
    </g>
</svg>
