<?xml version="1.0" encoding="UTF-8"?>
<svg width="16px" height="16px" viewBox="0 0 16 16" version="1.1" xmlns="http://www.w3.org/2000/svg" xmlns:xlink="http://www.w3.org/1999/xlink">
    <title>searchsearch</title>
    <g id="Staking-Pool" stroke="none" stroke-width="1" fill="none" fill-rule="evenodd">
        <g id="Staking-Pool-Your-pool" transform="translate(-811.000000, -190.000000)" fill="#EBB94C" fill-rule="nonzero">
            <g id="searchsearch" transform="translate(811.000000, 190.000000)">
                <rect id="searchsearch" opacity="0" x="0" y="0" width="16" height="16"></rect>
                <path d="M6.01798202,6.02597403 L4.003996,6.02597403 L4.003996,3.67632369 C4.003996,3.16483518 4.1052281,2.6879787 4.3076923,2.24575425 C4.51015649,1.8035298 4.78987678,1.41458541 5.14685314,1.07892108 C5.50382951,0.743256745 5.92474193,0.479520479 6.40959041,0.287712281 C6.89443889,0.0959040833 7.42457542,0 8,0 C8.51148851,0 9.00432901,0.0959040938 9.47852148,0.287712281 C9.95271396,0.479520469 10.3736264,0.743256734 10.7412588,1.07892108 C11.1088911,1.41458542 11.4019314,1.80352981 11.6203796,2.24575425 C11.8388278,2.68797869 11.948052,3.16483517 11.948052,3.67632369 L11.948052,6.02597403 L10.013986,6.02597403 L10.013986,4.12387612 C10.013986,3.45254746 9.82750583,2.93306694 9.45454545,2.56543456 C9.08158508,2.19780219 8.57542457,2.01398601 7.93606394,2.01398602 C7.36063936,2.01398602 6.8971029,2.1978022 6.54545455,2.56543456 C6.19380619,2.93306693 6.01798202,3.45254745 6.01798202,4.12387612 L6.01798202,6.02597403 Z M12.9070929,6.98501498 C13.1948052,6.98501498 13.4425574,7.08891109 13.6503497,7.2967033 C13.8581419,7.50449551 13.962038,7.75224776 13.962038,8.03996005 L13.962038,12.995005 C13.962038,13.2827173 13.9114219,13.5517816 13.8101898,13.8021978 C13.7089577,14.0526141 13.5704296,14.2710623 13.3946054,14.4575425 C13.2187812,14.6440227 13.010989,14.7905428 12.7712288,14.8971029 C12.5314685,15.003663 12.2677323,15.0569431 11.98002,15.0569431 L3.90809189,15.0569431 C3.6203796,15.0569431 3.35930734,15.003663 3.12487511,14.8971029 C2.89044288,14.7905428 2.69064268,14.6493507 2.52547452,14.4735265 C2.36030635,14.2977023 2.23243422,14.0925741 2.14185812,13.8581419 C2.05128203,13.6237096 2.00599398,13.3732934 2.00599398,13.1068931 L2.00599398,8.03996006 C2.00599398,7.75224777 2.10722608,7.50449552 2.30969028,7.29670331 C2.51215448,7.0889111 2.75724272,6.98501498 3.04495502,6.98501498 L4.00399597,6.98501498 L6.01798198,6.98501498 L10.013986,6.98501498 L11.9480519,6.98501498 L12.9070929,6.98501498 L12.9070929,6.98501498 Z" id="searchsearch"></path>
            </g>
        </g>
    </g>
</svg>
