<?xml version="1.0" encoding="UTF-8"?>
<svg width="40px" height="40px" viewBox="0 0 40 40" version="1.1" xmlns="http://www.w3.org/2000/svg" xmlns:xlink="http://www.w3.org/1999/xlink">
    <title>035searchsearch</title>
    <g id="Staking-Pool" stroke="none" stroke-width="1" fill="none" fill-rule="evenodd" opacity="0.2">
        <g id="Staking-Pool-Your-pool" transform="translate(-701.000000, -296.000000)" fill="#FFFFFF" fill-rule="nonzero">
            <g id="035searchsearch" transform="translate(701.000000, 296.000000)">
                <rect id="searchsearch" opacity="0" x="0" y="0" width="40" height="40"></rect>
                <path d="M23.109375,20.1601563 L23.0546875,20.1289063 L21.1992188,19.4492188 L21.1992188,14.359375 C21.78125,14.4414063 22.2539063,14.6289063 22.6054688,14.9101563 L22.6132813,14.9179688 C23.0742188,15.2773438 23.3710938,15.9335938 23.5,16.8710938 L25.203125,16.6367188 C25.0117188,15.2421875 24.5,14.2109375 23.6757813,13.5664063 C23.0273438,13.0507813 22.1953125,12.734375 21.1992188,12.6289063 L21.1992188,10.546875 L19.4804688,10.546875 L19.4804688,12.6328125 C18.5195313,12.734375 17.7226563,13.015625 17.0507813,13.4921875 C16.0039063,14.2109375 15.4726563,15.2578125 15.4726563,16.5976562 C15.4726563,18.09375 16.203125,19.28125 17.578125,20.0273438 L17.6328125,20.0585938 L19.4804688,20.734375 L19.4804688,25.828125 C18.9023438,25.7460937 18.4296875,25.5585938 18.078125,25.2773438 L18.0703125,25.2695312 C17.609375,24.9101562 17.3125,24.2539062 17.1835938,23.3164062 L15.4804688,23.5507812 C15.671875,24.9453125 16.1835938,25.9765625 17.0078125,26.6210937 C17.65625,27.1367188 18.4882813,27.4492188 19.4804688,27.5585938 L19.4804688,29.6367188 L21.1992188,29.6367188 L21.1992188,27.5546875 C22.1640625,27.453125 22.9648438,27.171875 23.6367188,26.6953125 C24.6835938,25.9765625 25.2148438,24.9296875 25.2148438,23.5898438 C25.2148438,22.09375 24.484375,20.90625 23.109375,20.1601562 L23.109375,20.1601563 Z M18.3476563,18.484375 C17.5507813,18.0390625 17.1953125,17.453125 17.1953125,16.5976562 C17.1953125,15.8203125 17.453125,15.3007813 18.03125,14.9023438 L18.0429688,14.8945313 C18.4296875,14.6210938 18.9023438,14.4453125 19.4804688,14.359375 L19.4804688,18.8984375 L18.3476563,18.484375 Z M22.65625,25.2851562 L22.6445313,25.2929688 C22.2578125,25.5703125 21.78125,25.7460938 21.1992188,25.828125 L21.1992188,21.2851562 L22.3398438,21.703125 C23.1367188,22.1484375 23.4921875,22.734375 23.4921875,23.5898438 C23.4921875,24.3671875 23.234375,24.8867188 22.65625,25.2851562 L22.65625,25.2851562 Z" id="searchsearch"></path>
                <path d="M36.515625,13.2578125 C35.6328125,11.1679687 34.3671875,9.2890625 32.7539063,7.67578125 C31.140625,6.06640625 29.2617188,4.796875 27.171875,3.9140625 C25.0078125,3 22.7070313,2.53515625 20.3359375,2.53515625 C17.9648438,2.53515625 15.6640625,2.99609375 13.5,3.9140625 C11.4101563,4.796875 9.52734375,6.0625 7.91796875,7.67578125 C6.30859375,9.2890625 5.0390625,11.1679687 4.15625,13.2578125 C3.2421875,15.421875 2.77734375,17.7265625 2.77734375,20.09375 C2.77734375,22.4609375 3.2421875,24.7617188 4.16015625,26.9335938 C5.04296875,29.0234375 6.30859375,30.9023438 7.921875,32.515625 C9.53515625,34.125 11.4140625,35.3945312 13.5039063,36.2773437 C15.6679688,37.1914062 17.96875,37.65625 20.3398438,37.65625 C22.7109375,37.65625 25.0117188,37.1914062 27.171875,36.2734375 C29.2617188,35.390625 31.140625,34.125 32.7539063,32.5117188 C34.3632813,30.8984375 35.6328125,29.0195312 36.515625,26.9296875 C37.4296875,24.765625 37.8945312,22.4648438 37.8945312,20.09375 C37.8945312,17.7226562 37.4335938,15.421875 36.515625,13.2578125 Z M34.9375,26.2578125 C34.140625,28.1445312 33,29.8359375 31.5429688,31.2929687 C30.0898438,32.7460938 28.3945313,33.890625 26.5078125,34.6875 C24.5546875,35.515625 22.4804688,35.9335937 20.3398438,35.9335937 C18.1992188,35.9335937 16.125,35.5117187 14.171875,34.6875 C12.2851563,33.890625 10.59375,32.75 9.13671875,31.2929687 C7.68359375,29.8398437 6.5390625,28.1445312 5.7421875,26.2578125 C4.9140625,24.3046875 4.49609375,22.2304687 4.49609375,20.0898437 C4.49609375,17.9492187 4.91796875,15.875 5.7421875,13.921875 C6.5390625,12.0351562 7.6796875,10.34375 9.13671875,8.88671875 C10.5898438,7.43359375 12.2851563,6.2890625 14.171875,5.4921875 C16.125,4.6640625 18.1992188,4.24609375 20.3398438,4.24609375 C22.4804688,4.24609375 24.5546875,4.66796875 26.5078125,5.4921875 C28.3945313,6.2890625 30.0859375,7.4296875 31.5429688,8.88671875 C32.9960938,10.3398437 34.140625,12.0351562 34.9375,13.921875 C35.765625,15.875 36.1835938,17.9492187 36.1835938,20.0898437 C36.1835938,22.2304687 35.7617188,24.3046875 34.9375,26.2578125 Z" id="searchsearch"></path>
            </g>
        </g>
    </g>
</svg>
